<svg width="1163" height="631" viewBox="0 0 1163 631" fill="none" xmlns="http://www.w3.org/2000/svg">
<g id="Frame 1">
<path id="wa" d="M135.71 86.5C137.39 86.35 139 86.25 140.71 86.5C150 87.88 172.59 96.53 174.7 84.51C176.81 72.49 177.36 59.29 180.38 47.17C183.4 35.05 187.78 16.93 172.71 15.5C157.65 14.06 148.53 10.62 134.78 8.43C121.04 6.23 110.51 3.74 97.7096 0.5H80.7096C82.5796 8.38 82.3496 19.14 82.2996 25.75C82.2596 32.37 74.3496 46.2 71.4896 36.72C68.6296 27.24 72.2396 17.62 60.3796 16.83C48.5296 16.04 48.7696 10.91 38.7096 8.5C36.5896 18.5 42.6296 30.21 41.7096 40.5C40.7896 50.79 40.0496 64.47 52.6396 64.57C65.2296 64.68 57.8596 86.14 69.7096 84.5C81.5596 82.86 90.4696 86.49 101.71 87.5C112.95 88.51 124.03 87.51 135.71 86.5Z" fill="white" stroke="black"/>
<path id="id" d="M235.71 114.5C227.47 122.24 219.14 112.67 223.78 104.57C228.42 96.48 228.04 88.09 222.46 82.75C216.88 77.41 213.68 71.25 208.96 65.25C204.25 59.24 202.08 47.96 201.71 40.5C201.34 33.04 207.06 20.01 195.93 19.28C184.81 18.55 188.53 31.75 186.64 39.43C184.75 47.1 182.34 56.28 181.11 63.76C179.88 71.23 179.79 82.57 180.71 90.5C181.63 98.42 189.17 104.8 183.96 112.75C178.76 120.71 175.49 124.81 170.97 131.76C166.45 138.7 174.84 148.55 169.7 157.49C164.57 166.44 169.95 174.01 165.49 184.28C161.03 194.55 171.5 199.4 180.69 199.52C189.87 199.65 198.56 202.54 207.69 203.52C216.82 204.51 226.45 205.49 235.69 206.52C244.92 207.56 254.66 208.7 263.71 210.5C272.76 212.31 283.58 212.37 283.78 201.57C283.99 190.78 286.55 183.53 286.71 173.5C286.87 163.48 291.37 155.85 286.71 146.5C280.06 151.66 272.25 147.55 264.71 149.5C257.17 151.45 246.96 149.17 248.71 139.5C239.01 135.77 239.9 122.8 235.71 114.5Z" fill="white" stroke="black"/>
<path id="mt" d="M290.71 142.5C297.16 129.74 310.93 136.43 322.71 137.5C334.49 138.57 350.54 139.62 362.64 140.57C374.73 141.52 390.47 142.99 402.04 144.17C413.61 145.35 431.32 148.87 431.71 134.5C432.11 120.13 434.21 106.82 433.71 93.5C433.21 80.18 438.53 64.72 435.68 52.53C432.84 40.33 411.19 47.04 400.71 44.5C390.23 41.96 374.47 42.15 362.71 40.5C350.95 38.85 335.39 38.61 323.38 36.83C311.37 35.05 296.63 33.84 284.78 32.43C272.94 31.02 258.08 27.28 246.72 27.49C235.36 27.7 220.66 18.42 211.41 24.2C202.16 29.99 206.46 48.36 210.78 56.43C215.1 64.49 220.42 74.85 228.63 81.58C236.84 88.3 228.12 102 227.71 112.5C237.15 104.41 242.79 114.6 243.79 123.42C244.79 132.24 253.92 135.6 254.71 144.5C267.62 145.22 279.18 142.65 290.71 142.5Z" fill="white" stroke="black"/>
<path id="me" d="M1101.71 151.5C1104.01 145.68 1105.21 136.47 1111.02 132.81C1116.82 129.14 1125.08 127.99 1126.74 120.53C1128.4 113.07 1134.18 112.46 1141.69 109.48C1149.19 106.49 1152.45 105.55 1159.46 99.25C1166.48 92.95 1156.99 89.8 1153.03 84.18C1149.08 78.56 1143.64 74.69 1142.69 66.52C1141.73 58.36 1139.1 52.65 1137.03 44.18C1134.96 35.7 1126.99 36.22 1120.74 40.52C1114.48 44.83 1108.06 35.73 1105.48 45.27C1102.9 54.81 1098.52 57.24 1098.64 66.43C1098.76 75.61 1097.12 81.71 1093.03 88.82C1088.95 95.94 1085.52 101.23 1088.38 108.83C1091.24 116.43 1090.57 124.91 1092.93 132.28C1095.3 139.64 1095.18 146.66 1101.71 151.5Z" fill="white" stroke="black"/>
<path id="mn" d="M592.71 189.5C599.05 190.45 606.29 189.5 612.71 189.5C623.7 187.86 636.94 191.69 647.7 189.49C658.47 187.29 670.04 190.62 680.68 188.47C691.32 186.32 675.57 174.27 671.41 170.8C667.24 167.34 651.85 162.55 654.73 153.52C657.62 144.5 650.62 132.85 658.96 126.75C667.29 120.65 661.26 109.23 669.46 103.25C677.66 97.28 681.19 92.22 687.63 86.42C694.07 80.61 702.25 78.05 709.71 74.5C702.38 67.58 690.64 73.25 681.71 73.5C672.78 73.74 665.25 66.82 656.79 63.42C648.33 60.02 638.49 62.34 628.93 60.28C619.38 58.22 614.48 52.61 611.71 43.5C607.6 54.77 596.15 52.62 583.71 51.5C571.27 50.38 571.45 66.69 575.72 76.49C579.99 86.29 579.17 99.2 580.72 109.49C582.26 119.78 588.46 128.94 579.71 137.5C587.77 144 586.28 154.25 586.71 163.5C587.14 172.75 582.79 186.73 592.71 189.5Z" fill="white" stroke="black"/>
<path id="nd" d="M569.71 70.5C569.05 66.46 569.58 59.55 567.71 55.5C564.42 50.55 560.26 51.5 554.71 51.5C553.71 51.5 552.71 51.5 551.71 51.5C548.82 52.13 545.27 52.83 541.71 52.5C538.34 52.18 534.34 51.84 530.71 51.5C516.07 50.25 499.61 49.12 484.71 49.5C469.81 49.88 455.58 45.02 441.71 49.5C439.88 60.1 441.13 68.52 439.71 79.5C438.29 90.48 439.88 97.59 437.71 109.5C435.54 121.41 446.84 122.82 456.71 122.5C466.58 122.18 477.98 123.56 487.71 123.5C497.44 123.44 509.46 124.55 518.64 124.57C527.81 124.6 541.39 126.45 549.49 125.72C557.59 124.99 573.58 130.84 577.78 123.57C581.98 116.31 572.43 105.16 574.71 96.5C576.99 87.84 570.17 78.91 569.71 70.5Z" fill="white" stroke="black"/>
<path id="or" d="M47.7096 67.5C36.2696 65.51 38.2196 79.77 35.4896 87.28C32.7596 94.78 30.1396 101.69 28.0396 108.83C25.9296 115.97 23.9296 125.59 20.4796 132.27C17.0296 138.95 11.5496 146.43 10.7196 153.49C9.88957 160.55 8.22957 172.09 17.7096 173.5C27.1896 174.91 35.8496 175.64 44.7096 177.5C53.5596 179.37 62.0596 180.68 70.4796 182.29C78.8996 183.9 86.3796 185.01 95.7096 186.5C105.03 187.99 112.93 188.63 122.64 190.57C132.34 192.51 137.94 193.04 148.71 195.5C159.48 197.96 161.52 184.82 161.71 176.5C161.91 168.18 164.31 157.71 166.4 150.19C168.5 142.68 160.86 134.62 167.41 128.2C173.97 121.79 175.23 117.38 179.94 109.73C184.65 102.08 174.59 95.82 166.71 95.5C158.84 95.17 148.37 92.21 139.71 91.5C131.05 90.79 119.08 92.42 110.71 93.5C102.34 94.57 91.7896 91.37 84.7296 88.48C77.6796 85.58 66.1196 93.38 60.4796 85.73C54.8396 78.08 59.1196 69.48 47.7096 67.5Z" fill="white" stroke="black"/>
<path id="nh" d="M1080.71 102.5C1075.25 109.46 1079.77 119.82 1072.96 127.75C1066.16 135.69 1070.93 143.23 1066.71 153.5C1062.49 163.77 1072.79 169.27 1081.49 166.28C1090.19 163.29 1100.23 160.43 1094.81 152.4C1089.4 144.37 1090.11 136.47 1087.69 127.52C1085.26 118.58 1083.55 111.16 1080.71 102.5Z" fill="white" stroke="black"/>
<g id="wi">
<path d="M744.71 87.5C733.59 97.51 720.02 104.94 706.71 111.5C722.92 123.13 755.81 114.37 757.71 140.5C763.82 135.82 767.37 120.89 778.71 125.5C792.17 113.64 810.62 116.62 826.71 116.5C822.78 114.57 821.62 105.62 815.93 107.72C810.25 109.82 806.06 106.83 804.71 101.5C799 104.62 791.68 103.11 785.79 105.58C779.9 108.04 775.62 112.02 768.71 111.5C761.8 110.98 757.62 108.37 753.4 103.81C749.19 99.24 738.41 107.89 737.11 101.24C735.82 94.6 743.58 93.15 744.71 87.5Z" fill="white"/>
<path d="M690.71 105.5C685.35 109.57 676.2 107.75 670.96 111.75C665.73 115.76 670.83 126.27 662.96 129.75C655.09 133.23 664.21 143.47 660.7 149.49C657.19 155.52 663.6 162.44 669.68 164.53C675.77 166.62 678.36 172.3 684.46 175.75C690.57 179.19 690.84 187 692.38 193.83C693.92 200.65 692.92 207.81 701.03 211.18C709.14 214.55 714.49 212.87 723.71 212.5C732.93 212.13 738.38 210.91 748.71 211.5C759.04 212.09 754.88 203.23 754.05 196.18C753.21 189.13 757.72 181.61 757.78 174.57C757.85 167.54 763.6 160.79 761.71 154.5C762.17 159.11 751.31 164.83 749.72 159.51C748.12 154.19 755.08 150.23 755.71 145.5C750.38 140.92 752.86 131.63 745.94 128.27C739.02 124.92 731.4 126.49 724.93 123.28C718.47 120.06 710.97 121.55 705.79 116.42C700.62 111.29 689.17 115.05 690.71 105.5Z" fill="white"/>
<path d="M744.71 87.5C733.59 97.51 720.02 104.94 706.71 111.5C722.92 123.13 755.81 114.37 757.71 140.5C763.82 135.82 767.37 120.89 778.71 125.5C792.17 113.64 810.62 116.62 826.71 116.5C822.78 114.57 821.62 105.62 815.93 107.72C810.25 109.82 806.06 106.83 804.71 101.5C799 104.62 791.68 103.11 785.79 105.58C779.9 108.04 775.62 112.02 768.71 111.5C761.8 110.98 757.62 108.37 753.4 103.81C749.19 99.24 738.41 107.89 737.11 101.24C735.82 94.6 743.58 93.15 744.71 87.5Z" stroke="black"/>
<path d="M690.71 105.5C685.35 109.57 676.2 107.75 670.96 111.75C665.73 115.76 670.83 126.27 662.96 129.75C655.09 133.23 664.21 143.47 660.7 149.49C657.19 155.52 663.6 162.44 669.68 164.53C675.77 166.62 678.36 172.3 684.46 175.75C690.57 179.19 690.84 187 692.38 193.83C693.92 200.65 692.92 207.81 701.03 211.18C709.14 214.55 714.49 212.87 723.71 212.5C732.93 212.13 738.38 210.91 748.71 211.5C759.04 212.09 754.88 203.23 754.05 196.18C753.21 189.13 757.72 181.61 757.78 174.57C757.85 167.54 763.6 160.79 761.71 154.5C762.17 159.11 751.31 164.83 749.72 159.51C748.12 154.19 755.08 150.23 755.71 145.5C750.38 140.92 752.86 131.63 745.94 128.27C739.02 124.92 731.4 126.49 724.93 123.28C718.47 120.06 710.97 121.55 705.79 116.42C700.62 111.29 689.17 115.05 690.71 105.5Z" stroke="black"/>
</g>
<path id="vt" d="M1061.71 164.5C1061.33 160.42 1060.47 151.52 1062.71 148.5C1062.71 148 1062.71 147.5 1062.71 147.5C1063.56 142.33 1066.03 132.31 1066.79 127.58C1067.55 122.85 1077.88 116.69 1071.45 111.76C1065.03 106.83 1059.98 114.83 1052.72 113.51C1045.45 112.18 1040.18 117.5 1042.93 124.28C1045.68 131.06 1042.82 138.45 1045.38 144.83C1047.95 151.21 1052.34 154.86 1050.72 162.49C1049.09 170.13 1062.24 172.27 1061.71 164.5Z" fill="white" stroke="black"/>
<path id="ny" d="M1020.71 208.5C1029.43 210.44 1031.67 215.05 1040.64 217.57C1049.6 220.09 1047.37 207.13 1046.71 199.5C1046.06 191.87 1047.04 178.66 1046.77 170.58C1046.51 162.5 1045.53 157.34 1041.63 149.58C1037.74 141.81 1039.36 135.41 1038.03 126.18C1036.7 116.95 1029.92 116.03 1021.72 118.51C1013.52 120.99 1006.83 121.17 1001.46 127.25C996.1 133.33 993.6 137.29 989.42 143.21C985.24 149.12 992.79 158.94 985.46 164.25C978.13 169.56 975.32 173.06 966.71 173.5C958.1 173.94 947.09 172.46 939.79 175.58C932.49 178.7 940 188.73 935.63 193.42C931.25 198.11 920.03 206.33 928.71 207.5C937.39 208.67 943.73 204.72 953.71 204.5C963.69 204.28 967.23 201.93 979.49 201.28C991.74 200.63 1016.58 189.62 1020.71 208.5Z" fill="white" stroke="black"/>
<path id="sd" d="M441.71 199.5C444.61 199.89 447.78 199.44 450.71 199.5C461.72 200.97 474.52 200.24 485.69 200.52C496.85 200.81 507.61 203.19 518.71 202.5C529.81 201.81 541.02 202.48 550.02 207.19C559.01 211.9 570.34 203.46 578.71 211.5C581.4 202.57 579.58 194.74 581.71 185.5C583.84 176.26 579.79 163.82 581.71 154.5C583.63 145.18 569.86 141.47 576.71 132.5C562.67 130.56 547.19 130.23 532.71 130.5C518.23 130.77 502.98 127.48 488.71 128.5C474.44 129.52 457.34 124.99 443.71 127.5C430.09 130.02 436.27 153.43 434.71 164.5C433.15 175.57 427.93 195.93 441.71 199.5Z" fill="white" stroke="black"/>
<path id="mi" d="M839.71 137.5C831.55 134.29 815.94 123.65 811.03 131.82C806.13 139.99 804.01 160.98 795.71 147.5C789.46 158.35 781.52 174.59 787.79 187.42C794.05 200.26 793.39 214.92 786.71 227.5C797.76 226.65 812.84 226.36 823.71 226.5C834.58 226.64 846.64 224.77 850.74 215.53C854.83 206.28 863.06 198.15 861.64 188.57C860.21 178.99 855 162.38 847.46 174.25C839.92 186.12 826.93 176.06 835.96 166.75C844.99 157.44 840.5 148.59 839.71 137.5Z" fill="white" stroke="black"/>
<path id="wy" d="M427.71 204.5C427.84 201.18 427.71 197.82 427.71 194.5C427.71 183.31 433.05 165.56 429.03 155.18C425.01 144.8 405.18 151.43 394.71 148.5C384.24 145.57 367.42 148.21 355.72 145.49C344.02 142.78 331.14 144.76 318.71 141.5C306.28 138.24 293.2 139.34 293.71 154.5C294.21 169.66 290.37 177.74 290.04 191.83C289.71 205.92 286.81 216.18 286.49 230.28C286.17 244.37 303.56 240.06 314.69 241.52C325.81 242.99 342.62 243.98 353.71 244.5C364.79 245.03 381.4 248.24 391.04 248.17C400.68 248.1 423.26 255.44 425.71 243.5C428.16 231.56 427.25 216.55 427.71 204.5Z" fill="white" stroke="black"/>
<path id="ma" d="M1051.71 180.5C1051.04 185.65 1051.46 188.2 1056.71 188.5C1062.81 187.3 1071.68 185.94 1077.64 185.43C1083.59 184.92 1093.62 181.11 1096.79 188.42C1099.95 195.74 1106.81 192.63 1112.71 190.5C1106.03 184.45 1096.96 179.41 1099.4 170.2C1101.85 160.98 1085.05 171.37 1077.71 171.5C1070.37 171.63 1054.12 171.85 1051.71 180.5Z" fill="white" stroke="black"/>
<path id="ca" d="M192.71 407.5C190.73 400.21 187.58 391.51 182.96 385.25C178.33 378.99 172.72 374.4 167.96 368.25C163.19 362.1 157.58 356.56 152.63 350.58C147.68 344.61 143.27 339.34 137.96 333.25C132.65 327.16 128.29 322.1 123.01 316.2C117.74 310.29 113.32 304.23 107.96 298.25C102.6 292.28 98.7196 287.67 92.9596 281.25C87.1896 274.84 83.2996 267.65 85.7096 258.5C88.1196 249.36 87.3996 239.11 89.7796 229.57C92.1696 220.04 92.2096 212.72 94.7096 202.5C97.2196 192.29 88.2396 189.37 78.7096 188.5C69.1796 187.63 60.4396 185.8 50.7196 183.49C40.9996 181.19 33.8796 182.31 23.3796 178.83C12.8796 175.34 10.7296 185.08 10.6896 194.48C10.6396 203.87 2.59957 208.24 0.709575 216.5C-1.18043 224.76 10.4096 232.16 7.70957 241.5C5.00957 250.84 8.58957 261.28 13.9396 268.27C19.2896 275.26 17.6796 283.7 24.9296 289.28C32.1896 294.85 20.6496 308.19 31.4596 312.75C42.2796 317.31 34.2196 326.58 36.7896 334.42C39.3496 342.27 43.8296 347.07 48.7896 354.42C53.7596 361.77 57.0996 368.15 56.7796 378.43C56.4696 388.7 73.2896 384.75 78.4796 389.73C83.6696 394.71 91.2096 398.58 97.9596 402.25C104.72 405.91 107.67 412.83 115.46 416.75C123.26 420.67 122.82 431.96 126.74 438.47C130.67 444.97 145.49 442.91 153.71 443.5C161.93 444.09 175.53 444.98 182.71 440.5C176.65 435.19 180.03 429.23 183.38 424.17C186.73 419.11 184.84 410.04 192.71 408.5V407.5Z" fill="white" stroke="black"/>
<path id="ri" d="M1090.71 189.5C1083.94 188.22 1087.07 197.25 1088.71 200.5C1092.89 199.52 1089.73 192.84 1090.71 189.5Z" fill="white" stroke="black"/>
<path id="ct" d="M1052.71 213.5C1059.11 213.02 1064.77 203.75 1072.04 205.83C1079.31 207.9 1087.62 196.36 1080.93 191.28C1074.25 186.2 1065.37 193.95 1057.38 193.17C1049.4 192.4 1052.62 208.34 1052.71 213.5Z" fill="white" stroke="black"/>
<path id="nv" d="M201.71 359.5C204.66 348.1 205.64 336.45 206.71 324.5C207.78 312.55 209.6 300.47 210.71 288.5C211.82 276.54 214.54 264.67 214.72 252.51C214.89 240.35 220.03 229.74 219.71 217.5C219.38 205.26 201 208.37 191.38 205.83C181.76 203.29 166.55 204.15 155.78 201.43C145.02 198.71 133.05 199.13 121.71 195.5C110.37 191.87 98.3996 194.32 98.6896 207.48C98.9696 220.63 93.6396 229.97 92.7096 241.5C91.7796 253.03 87.7196 266.78 94.7896 275.42C101.86 284.05 106.51 289.19 112.96 297.25C119.4 305.31 125.45 310.61 131.96 318.25C138.46 325.89 143.57 333.15 149.96 340.25C156.35 347.35 162.66 354.65 168.61 361.6C174.56 368.55 180.13 376.45 187.71 381.5C184.57 370.88 186.18 350.89 201.71 359.5Z" fill="white" stroke="black"/>
<path id="ia" d="M682.71 193.5C678.46 193.88 673.98 193.5 669.71 193.5C660.27 193.5 649.81 193.91 640.71 194.5C631.61 195.09 619.14 193.7 610.71 194.5C602.28 195.3 588.93 191.01 585.71 199.5C582.49 207.99 585.72 217.15 588.78 224.43C591.84 231.7 594.62 238.9 596.72 246.49C598.82 254.09 597.22 265.13 607.71 265.5C618.2 265.87 626.76 264.54 636.71 264.5C646.66 264.46 656.27 264.38 665.71 263.5C675.15 262.62 683.66 266.69 690.41 262.2C697.16 257.7 688.7 244 696.03 241.82C703.37 239.64 712.83 234.55 708.46 226.75C704.09 218.94 699.5 217.17 692.96 212.25C686.42 207.33 691.93 195.37 682.71 193.5Z" fill="white" stroke="black"/>
<path id="pa" d="M1021.71 214.5C1015.32 209.83 1012.69 200.6 1002.93 202.72C993.18 204.85 985.22 205.47 975.71 206.5C966.2 207.53 958.11 210.24 948.71 210.5C939.31 210.76 931.39 215.4 922.41 211.81C913.42 208.21 909.03 215.32 910.38 224.83C911.73 234.34 912.56 243.3 913.32 252.75C914.07 262.2 914.94 270.03 925.71 267.5C936.48 264.97 943.98 266.34 953.7 264.49C963.42 262.65 971.72 262.09 980.71 260.5C989.7 258.91 999.99 260.22 1007.68 256.47C1015.37 252.73 1022.36 252.14 1024.71 243.5C1012.93 237.67 1015.92 223.07 1021.71 214.5Z" fill="white" stroke="black"/>
<path id="ne" d="M489.71 278.5C494.64 278.5 499.8 278.07 504.71 278.5C536.18 281.29 568.58 280.34 600.71 280.5C593.12 261.05 590.47 239.96 582.71 220.5C575.35 217.86 569.12 209.32 559.72 212.51C550.32 215.7 545.77 208.6 536.71 207.5C527.65 206.4 517.48 206.42 507.71 206.5C497.94 206.58 487.46 206.53 477.71 205.5C467.96 204.47 458.62 206.19 448.71 204.5C438.8 202.81 429.62 207.1 431.71 217.5C433.8 227.9 427.04 238.08 431.41 246.8C435.77 255.53 448.52 250.1 456.71 251.5C464.9 252.9 473.44 255.91 470.71 267.5C467.99 279.09 482.14 278.5 489.71 278.5Z" fill="white" stroke="black"/>
<path id="ut" d="M234.71 211.5C218.22 210.53 225.06 231.77 221.49 243.28C217.91 254.79 219.43 269.22 216.64 282.43C213.85 295.64 215.25 306.99 212.04 321.83C208.83 336.67 226.65 338.68 238.71 338.5C250.77 338.32 267.91 342.28 279.04 342.17C290.17 342.06 311.4 350.74 313.71 336.5C316.02 322.26 315.77 309.66 316.71 295.5C317.66 281.34 320.86 269.91 320.71 255.5C320.56 241.1 298.83 247.9 287.96 244.25C277.08 240.61 286.96 216.68 273.93 216.28C260.9 215.88 247.22 212.24 234.71 211.5Z" fill="white" stroke="black"/>
<path id="il" d="M765.71 293.5C765.71 290.17 765.71 286.83 765.71 283.5C765.49 270.84 764.12 254.72 763.71 242.5C763.3 230.29 760.62 215.19 746.71 216.5C732.8 217.81 722.54 216.46 708.71 218.5C720.35 228.25 711.35 244.99 697.71 246.5C703.49 259.2 688 267.37 689.78 279.43C691.57 291.48 705.6 293.68 706.71 305.5C725.87 301.67 709.9 322.43 718.46 327.75C727.03 333.06 734.31 340.97 734.71 351.5C739.35 349.39 744.47 346.92 749.71 349.5C748.74 341.88 759.46 340.16 758.71 332.5C757.96 324.85 761.55 319.99 765.39 314.18C769.23 308.36 765.71 300.42 765.71 293.5Z" fill="white" stroke="black"/>
<path id="oh" d="M904.71 217.5C893.49 221.71 877.27 237.46 864.71 233.5C852.15 229.54 824.51 222.62 823.78 240.43C823.05 258.24 828.29 274.32 827.71 291.5C833.26 292.57 836.12 297.46 840.64 299.57C845.16 301.69 852.2 304.43 857.69 303.48C863.17 302.52 866.82 298.59 871.49 304.72C876.15 310.85 880.56 297.09 879.71 294.5C887 288.89 890.43 283 898.96 277.75C907.49 272.5 903.64 259.21 906.71 250.5C909.78 241.79 903.11 226.65 904.71 217.5Z" fill="white" stroke="black"/>
<path id="nj" d="M1032.71 272.5C1033.02 267.6 1040.26 261.85 1040.4 257.19C1040.55 252.54 1047.53 243.45 1042.63 239.58C1037.72 235.72 1039.12 230.33 1040.63 225.58C1042.14 220.82 1030.18 216.55 1026.96 217.75C1023.74 218.95 1020.83 230.22 1020.71 233.5C1029.48 238.86 1033.56 248.11 1022.96 254.75C1012.35 261.39 1026.62 269.24 1032.71 272.5Z" fill="white" stroke="black"/>
<path id="in" d="M820.71 303.5C825.36 295.15 821.12 286.49 821.71 277.5C822.3 268.51 819.85 259.37 819.71 250.5C819.57 241.63 820.25 230.66 809.71 231.5C799.17 232.34 792.78 232.35 783.71 233.5C774.64 234.65 766.95 237.35 768.93 247.28C770.92 257.2 768.62 264.9 770.71 274.5C772.8 284.1 769.48 290.81 770.78 300.43C772.08 310.04 771.15 313.72 765.49 322.28C759.82 330.83 775.52 328.61 781.71 327.5C787.9 326.38 795.45 319.08 801.71 323.5C807.72 316.94 810.79 302.9 820.71 303.5Z" fill="white" stroke="black"/>
<path id="co" d="M343.71 248.5C326.2 246.81 323.12 257.4 323.71 271.5C324.3 285.59 319.91 298.67 320.7 310.49C321.49 322.32 312.36 340.4 324.04 346.17C335.72 351.94 350.27 345.43 363.04 349.17C375.81 352.91 390.15 348.19 403.71 351.5C417.26 354.81 428.53 349.45 443.04 354.17C457.55 358.89 466.47 345.88 463.71 332.5C460.95 319.12 467.46 304.12 465.51 292.75C463.57 281.37 472.46 263.51 461.73 257.48C451.01 251.45 434.07 257.47 421.78 255.43C409.5 253.39 395.38 252.49 382.71 251.5C370.04 250.51 355.86 249.68 343.71 248.5Z" fill="white" stroke="black"/>
<path id="de" d="M1025.71 288.5C1021.51 279.18 1013.61 270.37 1012.71 259.5C1015 267.48 1011.88 292.04 1025.71 288.5Z" fill="white" stroke="black"/>
<path id="md" d="M1018.71 311.5C1018.76 311.85 1019.62 312.25 1019.71 312.5C1019.68 306.78 1030.6 294.01 1020.71 293.5C1010.83 292.99 1011.37 284.63 1009.71 275.5C1008.05 266.37 1005.94 260.73 995.71 264.5C985.48 268.27 979.33 263.6 969.71 267.5C975.51 277.73 995.01 281.2 986.71 295.5C991.15 296.54 995.1 299.14 999.71 299.5C996.71 292.12 989.26 275 999.97 268.76C1010.67 262.52 1004.88 288.49 1007.71 294.5C1016.56 296.39 1017.66 304.2 1018.71 311.5Z" fill="white" stroke="black"/>
<path id="wv" d="M909.71 264.5C907.24 270.31 907.53 281.5 898.79 283.58C890.04 285.65 893.01 298.69 883.71 298.5C882.93 307.69 872.51 315.87 881.46 323.75C890.41 331.62 892.52 335.56 903.71 333.5C914.89 331.44 921.03 326.34 923.94 316.73C926.85 307.12 930.94 296.84 940.71 299.5C941.56 290.79 950.43 290.7 953.41 283.2C956.38 275.69 961.39 270.99 969.71 276.5C966.4 266.04 960.44 273.84 953.71 274.5C946.98 275.16 944.02 280.01 937.93 283.72C931.85 287.43 933.11 268.52 925.38 273.17C917.65 277.82 910.09 270.85 909.71 264.5Z" fill="white" stroke="black"/>
<path id="mo" d="M623.71 308.5C625.72 317.16 624.71 328.06 624.71 337.5C624.71 339.8 624.49 342.21 624.71 344.5C625 347.57 625.71 351.75 625.71 355.5C625.71 359.07 624.66 364.49 626.71 367.5C640.43 373.54 664.86 367.16 679.71 368.5C694.56 369.84 724.46 358.81 718.71 380.5C730.98 382.36 725.43 370.51 731.96 364.75C738.49 358.99 730.05 354.34 728.64 346.57C727.22 338.81 721.43 335.89 714.79 331.42C708.16 326.94 710.57 316.76 711.71 309.5C700.17 311.04 699.78 298.68 691.46 292.75C683.14 286.82 687.25 273.93 678.71 268.5C674.93 269.71 668.71 268.5 664.71 268.5C656.33 268.5 649.25 270.44 640.71 269.5C632.17 268.56 625.18 270.94 616.71 270.5C608.24 270.06 601.3 271.58 607.79 278.42C614.28 285.25 617.17 284.42 616.65 292.42C616.12 300.42 621.97 301.03 623.71 308.5Z" fill="white" stroke="black"/>
<path id="va" d="M895.71 352.5C899.99 352.09 905.83 351.93 910.71 351.5C918.92 349.39 928.16 351.08 936.49 349.28C944.81 347.48 952.04 348.03 960.64 346.43C969.24 344.83 976.47 344.74 985.64 343.43C994.81 342.11 998.3 341.53 1008.71 339.5C1019.12 337.46 1002.44 334.28 1003.71 326.5C1004.98 318.72 1003.22 309.75 996.94 306.27C990.66 302.79 980.57 302.75 981.72 295.51C982.87 288.27 983.33 283.1 974.71 279.5C971.26 285.95 963.14 277.4 960.02 280.81C956.89 284.21 956.81 292.48 950.79 293.58C944.78 294.69 947.57 306.84 939.78 304.43C932 302.02 935.3 311.84 930.63 315.42C925.96 319 928.91 327.81 923.94 330.73C918.97 333.65 915.62 336.76 908.93 337.72C902.24 338.68 900 343.83 891.41 338.8C882.81 333.78 874.11 348.64 867.71 354.5C877.1 353.31 885.98 352.5 895.71 352.5Z" fill="white" stroke="black"/>
<path id="ks" d="M619.71 351.5C620.91 346.11 619.71 339.05 619.71 333.5C619.71 324.96 623.18 311.18 616.46 304.75C609.75 298.32 614.62 289.14 605.93 286.28C597.25 283.41 586.65 284.95 576.71 284.5C566.77 284.05 554.91 285.32 544.71 284.5C534.51 283.68 523.97 286.3 513.71 284.5C503.45 282.7 494.55 285.61 483.71 283.5C472.87 281.38 469.35 288.46 469.71 298.5C470.07 308.54 468.01 320.42 468.71 329.5C469.4 338.57 463.1 350.68 472.71 354.5C482.32 358.33 492.75 353.74 502.64 355.57C512.52 357.41 523.52 356.47 533.71 356.5C543.9 356.53 554 356.53 563.71 357.5C573.42 358.47 585.22 357.28 594.71 357.5C604.2 357.72 614.98 360.09 619.71 351.5Z" fill="white" stroke="black"/>
<path id="ky" d="M882.71 331.5C877.93 329.46 876.59 322.71 873.03 320.18C869.48 317.65 874.03 305.94 866.6 306.61C859.18 307.28 844.45 309.53 836.79 302.42C829.13 295.3 829.74 300 825.96 304.75C822.18 309.5 816.12 307.43 814.63 313.42C813.14 319.42 808.27 319.15 806.46 325.25C804.65 331.36 796.02 324.48 793.63 328.42C791.24 332.36 782.19 332.41 778.73 334.48C775.27 336.54 764.22 330.22 763.03 336.82C761.84 343.42 756.39 342.92 754.71 348.5C753.02 354.07 749.1 356.78 742.71 352.5C740.79 356.81 740.81 360.81 739.71 365.5C757.84 365.62 774.03 358.89 791.71 359.5C809.39 360.11 831.9 357.61 848.7 356.49C865.51 355.37 871.62 340.32 882.71 331.5Z" fill="white" stroke="black"/>
<path id="az" d="M181.71 446.5C186.16 456.13 199.61 457.12 208.63 462.58C217.64 468.04 228.23 470.63 237.63 475.58C247.04 480.52 259.58 485.31 270.49 485.72C281.4 486.13 300.33 492.86 301.78 478.57C303.24 464.29 303.87 452.31 304.71 438.5C305.56 424.7 307.71 413.76 308.38 400.17C309.05 386.58 311.01 374.14 311.71 360.5C312.41 346.86 296.17 347.89 284.71 347.5C273.25 347.11 257.47 344.16 245.71 343.5C233.95 342.84 220.14 338.5 209.71 343.5C208.72 349.02 209.02 357.46 204.96 361.75C200.89 366.03 190.15 359.65 191.71 368.5C193.27 377.35 191.39 380.97 191.71 388.5C192.04 396.03 195.18 397.91 197.93 404.28C200.68 410.65 191.17 412.2 190.49 417.28C189.81 422.36 184.02 428.61 184.74 433.47C185.46 438.34 191.48 445.56 181.71 446.5Z" fill="white" stroke="black"/>
<path id="nc" d="M870.71 378.5C869.28 379.63 868.14 380.55 866.71 381.5C861.43 386.47 847.84 388.67 848.71 397.5C857.96 394.12 868.9 398.16 877.49 392.28C886.07 386.39 895.91 390.28 905.69 387.48C915.46 384.68 919.95 395.83 929.04 393.83C938.13 391.83 947.81 394.22 954.46 399.75C961.11 405.28 965.59 412.23 973.64 413.43C981.68 414.63 984.22 400.53 989.81 396.6C995.4 392.67 1004.61 387.84 1010.71 384.5C1003.01 383.8 1007.62 375.51 1004.71 371.5C1011.07 369.23 1016.55 372.36 1020.45 365.24C1024.36 358.12 1012.6 358.31 1007.71 360.5C998.62 355.51 1012.28 349.37 1017.71 349.5C1012.15 340.08 998.08 347.54 987.71 347.5C977.34 347.46 965.61 351.03 954.93 351.72C944.25 352.41 932.81 355.8 921.71 355.5C910.62 355.21 900.36 356.63 894.41 365.2C888.47 373.77 878.81 372.11 870.71 378.5Z" fill="white" stroke="black"/>
<path id="nm" d="M332.71 351.5C319.82 350.25 315.88 356.07 315.71 367.5C315.54 378.93 313.4 387.64 313.64 398.43C313.87 409.21 310.39 418.24 310.71 428.5C311.03 438.76 307.48 449.68 308.7 459.49C309.93 469.31 300.67 479.79 309.02 488.19C317.37 496.6 321.14 478.9 329.03 478.84C336.93 478.77 349.77 482.73 357.01 477.8C364.25 472.88 376.21 474.4 385.69 475.52C395.16 476.65 406.45 476.27 416.71 477.5C426.97 478.73 436.17 477.78 435.71 465.5C435.25 453.22 437 447.04 437.38 436.17C437.76 425.3 436.67 416.42 438.71 405.5C440.75 394.59 437.33 385.41 439.73 373.52C442.14 361.64 436.19 357.55 424.71 357.5C413.23 357.45 403.51 357.16 392.73 356.48C381.96 355.79 372.29 354.65 361.73 354.48C351.17 354.3 342.63 352.46 332.71 351.5Z" fill="white" stroke="black"/>
<path id="tn" d="M863.71 378.5C866.63 376.78 868.77 374.54 871.71 372.5C878.36 366.99 889.35 365.56 893.71 357.5C883.07 358.08 871.64 358.47 861.38 360.17C851.12 361.87 841.13 360.9 830.71 362.5C820.29 364.1 806.66 361.38 796.71 363.5C786.76 365.62 773.25 361.89 764.94 366.73C756.63 371.57 742.35 366.67 735.42 372.21C728.48 377.74 729.85 387.97 724.63 396.42C719.42 404.88 740.11 404.39 748.71 403.5C757.31 402.61 772.13 402.04 781.71 401.5C791.29 400.96 805.34 400.45 814.71 399.5C824.08 398.55 837.72 401.56 843.41 393.2C849.1 384.84 855.51 383.32 863.71 378.5Z" fill="white" stroke="black"/>
<path id="ok" d="M534.71 428.5C537.97 428.93 541.48 427.92 544.71 428.5C548.19 428.79 550.8 431.71 552.71 434.5C560.2 434.72 568.92 435.54 576.7 435.51C584.48 435.48 593.54 439.23 600.71 434.5C607.88 429.77 619.47 441.18 623.71 437.5C621.54 435.11 624.58 424.69 624.71 422.5C624.51 417.36 623.71 412.78 623.71 407.5C623.71 403.51 623.86 399.49 623.71 395.5C623.4 387.46 623.9 365.91 615.71 362.5C605.6 359.88 591.21 362.5 580.71 362.5C571.26 362.5 561.35 361.14 551.71 361.5C542.07 361.86 531.11 361.72 521.71 361.5C512.31 361.28 501.67 360.89 492.71 360.5C483.76 360.11 471.46 361.42 463.71 359.5C455.96 357.58 442.17 362.08 450.04 367.17C457.91 372.26 468.02 366.21 476.71 368.5C485.4 370.79 495.99 366.95 504.01 371.2C512.04 375.44 508.04 389.78 508.71 396.5C509.38 403.22 503.57 418.63 513.02 420.19C522.46 421.76 525.98 427.34 534.71 428.5Z" fill="white" stroke="black"/>
<path id="tx" d="M441.71 444.5C441.71 450.41 442.26 456.62 441.71 462.5C443.88 482.39 426.01 484.86 410.73 482.48C395.46 480.09 378.87 480.63 362.71 479.5C367.11 489.45 373.29 495.5 382.63 502.58C391.97 509.66 398.01 515.06 400.72 527.49C403.42 539.92 411.34 541.24 422.49 548.72C433.63 556.21 438.53 541.85 446.49 535.28C454.44 528.71 471.21 534.36 478.48 540.73C485.75 547.1 492.68 556.54 495.94 566.27C499.2 576 509.98 581.29 514.94 590.27C519.9 599.25 519.18 613.21 528.46 619.75C537.75 626.28 550.03 625.79 559.71 630.5H565.71C563.62 619.77 558.52 606.3 562.94 595.73C567.36 585.16 573.26 579.37 581.63 572.42C590 565.47 600.59 565.6 608.46 558.25C616.34 550.9 621.58 543.87 632.63 540.42C643.69 536.98 643.19 520.48 644.71 510.5C646.23 500.53 636.24 489.1 634.71 479.5C633.42 471.37 635.72 462.68 634.71 454.5C633.82 443.73 623.32 446.67 615.94 441.27C608.56 435.88 597.17 442.12 589.38 442.17C581.59 442.22 572.11 440.63 564.4 440.81C556.7 440.98 549.06 438.24 543.71 432.5C535.49 435.94 527.51 431.12 520.93 427.28C514.36 423.44 504.76 425.57 502.71 415.5C501.82 411.13 502.41 404.96 502.71 400.5C503.03 395.77 503.71 391.45 503.71 386.5C503.71 383.47 504.57 379.03 502.71 376.5C499.19 373.09 489.7 373.6 484.71 373.5C480.66 373.42 476.03 372.82 472.71 372.5C464.35 372.5 445.92 368.62 444.71 379.5C443.5 390.38 443.78 401.47 443.71 412.5C443.64 423.53 441.71 433.54 441.71 444.5Z" fill="white" stroke="black"/>
<path id="ar" d="M664.71 373.5C662.47 373.71 660.24 374.4 657.71 374.5C650.61 374.77 634.08 371.89 628.81 376.6C623.54 381.31 629.1 396.05 629.71 402.5C630.76 413.71 627.28 426.54 629.71 437.5C631.96 443.62 638.47 443.47 639.39 450.82C640.31 458.17 651.96 455.05 657.71 455.5C663.46 455.95 674.4 455.52 679.71 454.5C685.02 453.48 696.21 457.07 697.38 450.17C698.55 443.27 697.61 436.36 700.94 430.73C704.27 425.1 708.21 422.45 709.74 416.52C711.26 410.6 715.22 406.46 717.38 401.17C719.54 395.89 721.97 390.66 721.71 385.5C710.71 388.1 713.07 378.5 715.71 372.5C698.57 373 681.63 371.91 664.71 373.5Z" fill="white" stroke="black"/>
<path id="sc" d="M964.79 414.42C957.27 410.99 954.16 402.59 945.78 399.43C937.41 396.27 923.66 402.19 917.41 394.8C911.16 387.41 896.02 393.86 887.73 393.52C879.45 393.19 866.42 402.99 874.48 407.73C882.54 412.47 884.68 420.51 891.96 425.25C899.24 429.99 903.52 437.34 909.61 442.6C915.69 447.86 917.5 457.71 921.71 464.5C929.63 456.4 937.54 449.16 946.61 442.4C955.69 435.65 959.07 422.7 965.71 414.5L964.79 414.42Z" fill="white" stroke="black"/>
<path id="ga" d="M864.71 401.5C851.87 401.42 840.26 402.08 827.71 403.5C815.16 404.92 825.18 419.68 825.73 429.48C826.29 439.27 831.66 447.99 834.74 458.48C837.81 468.96 835.66 478.03 836.71 490.5C837.76 502.97 849.01 505.2 861.71 503.5C874.41 501.8 886.52 504.04 898.71 504.5C897.59 494.2 914.06 498.25 913.38 489.17C912.7 480.09 921.3 474.31 918.02 467.19C914.73 460.08 911.47 453.66 907.48 447.73C903.48 441.81 896.52 438.32 892.96 432.25C889.39 426.19 879.86 424.93 877.63 417.58C875.41 410.22 862.2 411.71 864.71 401.5Z" fill="white" stroke="black"/>
<path id="al" d="M764.71 515.5C769.55 505.51 777.65 520.39 780.93 517.72C784.22 515.05 773.49 501.06 782.71 500.5C791.93 499.94 800.98 499.2 808.71 498.5C816.44 497.8 828 500.11 830.78 493.57C833.57 487.03 828.84 477.36 831.78 470.58C834.71 463.8 827.7 457.5 826.49 450.72C825.28 443.94 822.57 435.28 820.69 428.52C818.8 421.77 819.31 412.97 815 407.21C810.7 401.44 797.83 406.5 790.71 405.5C783.59 404.5 773.65 407.4 766.71 408.5C763.83 443.61 760.41 480.13 764.71 515.5Z" fill="white" stroke="black"/>
<path id="ms" d="M738.71 520.5C746.19 518.08 761.64 519.67 759.69 508.52C757.73 497.38 758.11 487.48 757.71 476.5C757.31 465.52 759.66 455.6 759.38 445.17C759.1 434.74 764.37 423.02 760.68 412.53C757 402.03 741.29 412.19 731.71 409.5C722.13 406.81 715.53 415.04 712.46 423.25C709.39 431.47 700.37 436.3 701.93 446.28C703.49 456.26 705.24 466.74 705.69 476.48C706.13 486.21 694.94 490 695.49 499.28C696.04 508.56 711.96 504.21 721.71 503.5C731.46 502.79 735.62 511.22 737.71 520.5H738.71Z" fill="white" stroke="black"/>
<path id="la" d="M732.71 522.5C731.09 513.23 728.26 507.47 718.71 508.5C709.16 509.53 701.92 511.01 693.74 508.47C685.55 505.93 690.39 495.43 693.79 489.58C697.19 483.73 701.5 478.68 700.49 469.72C699.47 460.77 692.81 458.67 683.71 459.5C674.61 460.33 666.24 459.62 657.71 460.5C649.18 461.38 639.75 459.38 639.71 469.5C639.67 479.62 641.03 484.15 644.41 491.81C647.78 499.46 651.31 505.2 649.64 513.43C647.96 521.65 647.16 528.39 645.71 536.5C657.96 532.08 669.78 545.91 680.46 538.25C691.15 530.59 696.87 543.75 705.64 548.57C714.4 553.39 727.86 542.68 736.71 545.5C733.51 541.36 735.04 535.85 739.71 533.5C733.8 531.4 723.16 535.46 718.04 529.17C712.92 522.88 728.27 514.99 732.71 522.5Z" fill="white" stroke="black"/>
<path id="fl" d="M891.71 508.5C878.98 506.22 863.68 508.5 850.71 508.5C839.11 508.46 831.12 500.23 818.71 502.5C806.3 504.77 795.81 503.04 783.71 505.5C784.41 509.27 787.25 512.4 786.71 516.5C796.04 514.36 811.37 513.96 819.46 518.75C827.56 523.54 835.25 534.48 843.96 526.75C852.67 519.03 861.67 517.12 869.01 525.2C876.35 533.27 881.19 535.45 889.46 542.75C897.72 550.06 889.52 561.01 890.71 569.5C905.57 564.58 892.81 580.43 898.94 587.27C905.07 594.11 910.63 601.66 914.79 609.42C918.94 617.19 931.16 619.47 931.71 630.5H938.71C951.43 622.49 954.23 596.77 946.02 583.2C937.8 569.62 937.11 551.44 926.63 539.58C916.16 527.71 919.47 505.43 903.71 501.5C905.77 514.04 899.65 512.34 891.71 508.5Z" fill="white" stroke="black"/>
</g>
</svg>
