<?xml version="1.0" encoding="iso-8859-1"?>
<!-- Uploaded to: SVG Repo, www.svgrepo.com, Generator: SVG Repo Mixer Tools -->
<svg fill="#000000" height="800px" width="800px" version="1.1" id="Layer_1" xmlns="http://www.w3.org/2000/svg" xmlns:xlink="http://www.w3.org/1999/xlink" 
	 viewBox="0 0 288.932 288.932" xml:space="preserve">
<g>
	<g>
		<g>
			<path d="M223.706,84.068c-0.204-1.604-1.652-2.756-3.284-2.528c-1.604,0.204-2.736,1.676-2.532,3.28
				c1.5,11.624,0.224,23.54-3.688,34.46c-0.548,1.524,0.248,3.2,1.768,3.748c0.328,0.116,0.664,0.172,0.988,0.172
				c1.204,0,2.332-0.744,2.756-1.94C223.938,109.468,225.322,96.608,223.706,84.068z"/>
			<path d="M217.274,72.316c0.316,0,0.636-0.052,0.96-0.16c1.528-0.528,2.34-2.196,1.812-3.724
				c-10.912-31.636-41.912-53.74-75.38-53.756c-1.62,0-2.928,1.308-2.932,2.924c0,1.62,1.312,2.932,2.932,2.932
				c31.012,0.016,59.732,20.5,69.844,49.808C214.926,71.552,216.062,72.316,217.274,72.316z"/>
			<path d="M144.662,168.216c-40.716,0-73.836-33.128-73.836-73.84c0-24.416,12.052-47.224,32.236-61.016
				c1.336-0.912,1.68-2.736,0.764-4.072c-0.908-1.332-2.732-1.68-4.068-0.764c-21.792,14.884-34.796,39.5-34.796,65.856
				c0,43.948,35.752,79.7,79.7,79.7c1.62,0,2.932-1.308,2.932-2.928C147.594,169.528,146.282,168.216,144.662,168.216z"/>
			<path d="M197.918,68.46l-33.168-4.82l-14.832-30.052c-0.988-2-3.028-3.268-5.256-3.268c-2.232,0-4.268,1.268-5.256,3.268
				L124.574,63.64l-33.168,4.82c-2.208,0.32-4.04,1.868-4.732,3.988c-0.688,2.124-0.116,4.452,1.48,6.008l24,23.392l-5.664,33.032
				c-0.376,2.2,0.528,4.42,2.332,5.732c1.02,0.74,2.228,1.12,3.444,1.12c0.932,0,1.868-0.22,2.728-0.672l29.664-15.592
				l29.664,15.592c0.856,0.452,1.792,0.672,2.728,0.672c1.216,0,2.424-0.38,3.444-1.12c1.804-1.312,2.708-3.532,2.332-5.732
				l-5.664-33.032l24-23.392c1.596-1.556,2.172-3.888,1.48-6.008C201.958,70.328,200.126,68.78,197.918,68.46z M170.87,99.804
				l6.184,36.068l-32.388-17.028l-32.392,17.028l6.188-36.068L92.258,74.26L128.47,69l16.196-32.816L160.862,69l36.212,5.26
				L170.87,99.804z"/>
			<path d="M237.498,93.028C237.498,41.732,195.766,0,144.466,0C93.17,0,51.434,41.732,51.434,93.028
				c0,28.924,13.276,54.808,34.044,71.884c-0.344,0.48-0.592,1.04-0.592,1.676v119.416c0,1.1,0.612,2.104,1.588,2.604
				c0.424,0.216,0.888,0.324,1.34,0.324c0.604,0,1.2-0.184,1.708-0.548l56.028-40.128l56.032,40.128
				c0.892,0.64,2.068,0.724,3.048,0.224c0.98-0.5,1.592-1.508,1.592-2.604v-121.58c0-0.56-0.2-1.052-0.472-1.496
				C225.194,145.864,237.498,120.864,237.498,93.028z M200.362,252.992l-44.568-30.204c-1.348-0.92-3.164-0.556-4.072,0.78
				c-0.908,1.34-0.556,3.164,0.784,4.068l47.856,32.428V280.3l-53.1-38.028c-1.024-0.728-2.392-0.728-3.416,0L90.75,280.3V168.912
				c14.728,10.456,32.608,16.732,51.92,17.1c-0.008,0.084-0.048,0.152-0.048,0.236V230.7c0,1.62,1.316,2.932,2.932,2.932
				s2.932-1.308,2.932-2.932v-44.452c0-0.104-0.048-0.192-0.06-0.292c3.064-0.128,6.088-0.408,9.068-0.828l42.728,28.956
				c0.044,0.032,0.096,0.04,0.14,0.068v17.56l-44.568-30.204c-1.348-0.912-3.164-0.556-4.072,0.78
				c-0.908,1.34-0.556,3.164,0.784,4.068l47.812,32.4c0.012,0.008,0.032,0.012,0.044,0.02V252.992z M200.366,207.1l-34.692-23.512
				c12.768-2.988,24.54-8.592,34.692-16.248V207.1z M144.466,180.196c-48.064,0-87.164-39.104-87.164-87.172
				s39.1-87.168,87.164-87.168s87.172,39.104,87.172,87.168C231.638,141.088,192.53,180.196,144.466,180.196z"/>
		</g>
	</g>
</g>
</svg>