<?xml version="1.0" encoding="iso-8859-1"?>
<!-- Uploaded to: SVG Repo, www.svgrepo.com, Generator: SVG Repo Mixer Tools -->
<svg fill="#000000" height="800px" width="800px" version="1.1" id="Layer_1" xmlns="http://www.w3.org/2000/svg" xmlns:xlink="http://www.w3.org/1999/xlink" 
	 viewBox="0 0 512 512" xml:space="preserve">
<g>
	<g>
		<g>
			<path d="M496.247,44.666C493.005,19.202,471.176,0,445.466,0H66.535c-25.71,0-47.542,19.202-50.783,44.666
				C9.73,91.979,3.928,185.188,32.728,277.852c15.859,51.03,40.264,95.733,72.534,132.868
				c38.21,43.971,87.955,77.867,147.854,100.748c0.929,0.355,1.907,0.532,2.884,0.532c0.978,0,1.956-0.178,2.886-0.532
				c59.898-22.88,109.643-56.777,147.853-100.748c32.271-37.136,56.675-81.838,72.535-132.868
				C508.073,185.187,502.27,91.979,496.247,44.666z M256,495.251C14.211,400.89,18.599,150.351,31.791,46.708
				c2.216-17.41,17.153-30.54,34.744-30.54h378.931c17.59,0,32.526,13.13,34.743,30.54C493.401,150.351,497.79,400.888,256,495.251z
				"/>
			<path d="M426.147,53.895H158.989c-4.465,0-8.084,3.618-8.084,8.084c0,4.466,3.62,8.084,8.084,8.084h267.157
				c1.4,0,2.556,1.058,2.686,2.461c9.442,102.025-0.619,284.384-172.833,364.171C83.785,356.907,73.725,174.548,83.168,72.524
				c0.129-1.403,1.285-2.461,2.686-2.461h40.798c4.465,0,8.084-3.618,8.084-8.084c0-4.466-3.62-8.084-8.084-8.084H85.854
				c-9.806,0-17.881,7.368-18.786,17.138c-4.596,49.661-5.011,124.059,19.112,196.486c28.723,86.236,84.741,148.624,166.5,185.435
				c1.055,0.474,2.187,0.713,3.319,0.713c1.132,0,2.264-0.238,3.319-0.713c81.759-36.81,137.778-99.199,166.501-185.436
				c24.122-72.425,23.707-146.825,19.111-196.486C444.027,61.262,435.949,53.895,426.147,53.895z"/>
			<path d="M239.83,328.759c9.281,0,18.146-4.432,23.714-11.857l113.179-150.905c9.807-13.075,7.146-31.691-5.93-41.5
				c-13.076-9.806-31.693-7.146-41.498,5.93L239.83,249.714l-24.792-33.056c-4.75-6.335-11.683-10.439-19.522-11.559
				c-7.838-1.12-15.643,0.881-21.977,5.631c-13.076,9.808-15.735,28.424-5.928,41.499l48.505,64.674
				C221.685,324.327,230.55,328.759,239.83,328.759z M183.242,223.664c2.356-1.769,5.161-2.698,8.055-2.698
				c0.641,0,1.287,0.046,1.934,0.138c3.562,0.51,6.714,2.376,8.873,5.255l31.259,41.679c1.527,2.036,3.922,3.234,6.467,3.234
				s4.94-1.198,6.467-3.234l95.933-127.911c4.456-5.945,12.916-7.154,18.863-2.695c5.944,4.458,7.152,12.92,2.695,18.863
				L250.609,307.201c-2.531,3.375-6.56,5.389-10.779,5.389s-8.248-2.015-10.779-5.389l-48.505-64.674
				C176.088,236.584,177.297,228.122,183.242,223.664z"/>
		</g>
	</g>
</g>
</svg>