<svg width="911" height="568" viewBox="0 0 911 568" fill="none" xmlns="http://www.w3.org/2000/svg">
<g id="Frame 1">
<path id="WA" d="M73.9858 19.7732C73.6658 20.3732 73.2358 21.2932 72.9858 21.7732C72.3558 22.9632 72.4158 25.4632 69.9858 24.7732C71.4858 13.2532 52.2058 14.5932 45.9858 6.77316C43.7558 15.4132 47.2258 24.5632 45.9858 33.7732C46.9458 34.6732 47.4058 36.5832 48.9858 36.7732C46.9858 40.1032 45.1858 41.8632 47.9858 45.7732C46.1358 47.1732 42.0358 51.3332 45.9858 52.7732C46.3658 52.7632 48.5558 53.6132 48.9858 53.7732C57.7058 56.9432 58.0158 60.6832 58.9858 69.7732C59.9558 78.8632 71.3858 70.2532 76.6758 74.0832C81.9658 77.9032 91.1958 77.6132 98.0058 77.7932C104.826 77.9832 116.066 76.8632 123.006 78.7532C129.956 80.6332 137.776 82.4932 144.986 83.7732C145.746 63.0532 153.046 43.9832 155.986 23.7732C156.526 22.4632 157.396 21.3332 156.986 19.7732C143.756 16.7232 128.666 15.2932 116.006 10.7532C103.356 6.20317 88.9658 6.36316 76.9858 0.773163C76.7058 9.17316 81.5458 21.5732 72.9858 26.7732C75.2858 33.4432 66.3758 40.8332 61.9858 36.7732C66.0458 37.0532 66.7758 33.4032 70.9858 33.7732C71.7158 31.1632 72.3358 28.6332 71.9858 25.7732C78.0858 25.8632 73.9758 19.9932 73.9858 19.7732Z" fill="white" stroke="black"/>
<path id="ID" d="M157.986 23.7732C159.536 30.0532 152.386 38.1232 153.206 44.9932C154.026 51.8632 148.426 59.2032 148.206 65.9932C147.996 72.7932 142.746 82.2532 147.966 88.7932C153.176 95.3432 149.426 98.4032 145.686 104.473C141.936 110.533 137.366 114.943 135.986 121.773C142.136 126.973 133.976 136.163 133.656 144.443C133.336 152.723 128.206 162.903 128.986 171.773C159.326 178.623 190.466 182.583 220.986 188.773C222.166 179.063 225.616 167.383 225.916 157.703C226.216 148.023 233.046 134.823 224.986 128.773C219.376 135.843 208.506 127.433 200.986 131.773C199.116 129.133 198.686 126.043 198.986 122.773C190.416 117.013 196.376 101.433 184.906 103.693C173.446 105.963 186.866 82.9732 186.986 78.7732C169.296 67.2632 165.956 42.4332 170.986 22.7732C166.446 22.8432 162.496 20.7032 157.986 20.7732C157.706 21.6632 158.326 22.9132 157.986 23.7732Z" fill="white" stroke="black"/>
<path id="MT" d="M346.986 48.7732C341.426 48.7732 336.236 48.5732 330.986 47.7732C326.936 47.1532 323.156 47.0932 318.986 46.7732C303.006 45.5532 285.616 43.1532 269.986 40.7732C254.356 38.3932 237.476 37.3332 222.656 33.1032C207.836 28.8732 190.536 30.8132 176.986 23.7732C169.796 24.5332 169.956 37.2432 169.986 43.7732C170.026 50.2932 172.586 58.2932 176.216 63.5432C179.836 68.8032 180.606 76.4732 187.986 77.7732C187.096 86.3032 183.416 93.8032 180.986 101.773C189.816 98.2932 194.926 101.233 194.206 110.553C193.486 119.863 202.986 120.593 200.986 129.773C206.356 129.583 210.706 128.243 215.986 129.773C221.266 131.303 225.526 123.803 229.986 128.773C231.016 119.503 245.316 124.293 253.966 124.793C262.606 125.303 273.576 127.783 282.916 127.843C292.246 127.913 301.466 131.323 310.986 131.773C320.506 132.223 331.116 133.333 340.986 132.773C342.146 118.873 341.976 104.423 343.986 90.7732C345.996 77.1232 342.856 61.8032 346.986 48.7732Z" fill="white" stroke="black"/>
<path id="ME" d="M866.986 26.7732C864.296 31.3132 863.356 38.0632 861.206 42.9932C859.066 47.9332 861.826 59.6432 860.656 63.4432C859.486 67.2432 855.686 79.0732 852.986 78.7732C854.356 84.0332 855.786 89.4732 856.976 94.7832C858.176 100.093 861.786 104.233 861.916 109.843C862.036 115.463 868.356 118.043 869.986 121.773C870.396 115.813 873.196 97.6032 880.986 96.7732C883.706 96.6332 884.916 95.3532 886.986 93.7732C886.086 88.5932 886.666 77.2332 893.986 83.7732C897.936 76.7932 904.136 80.7032 909.236 73.0232C914.326 65.3332 900.526 65.7432 901.986 57.7732C899.796 56.5832 897.276 56.5332 894.986 55.7732C893.046 46.2532 890.786 41.2232 888.306 31.4532C885.826 21.6732 875.156 26.9032 868.986 29.7732C869.686 27.9832 867.666 27.6732 866.986 26.7732Z" fill="white" stroke="black"/>
<path id="MN" d="M461.986 51.7732C460.576 51.9132 458.206 54.4332 455.986 52.7732C453.756 51.1132 450.186 54.7432 449.986 54.7732C447.596 67.9532 455.876 80.1632 454.986 92.7732C454.096 105.383 463.686 116.293 453.986 126.773C457.896 129.303 460.066 132.163 460.986 136.773C461.906 141.383 459.666 149.243 460.986 153.773C462.306 158.303 458.396 167.083 460.986 170.773C467.986 170.773 474.986 170.773 481.986 170.773C502.376 171.653 521.776 168.573 541.986 168.773C538.416 160.123 534.326 152.793 524.066 148.693C513.796 144.603 518.866 132.353 513.986 124.773C513.186 118.773 518.996 116.633 521.986 112.773C522.476 111.053 521.936 108.573 521.986 106.773C522.246 97.3932 530.906 94.0032 535.756 86.5432C540.606 79.0832 549.186 76.1232 555.986 71.7732C556.766 70.7732 558.056 70.6132 558.986 69.7732C554.596 70.8032 544.736 66.1632 539.986 65.7732C534.046 76.3032 525.716 61.0932 518.986 66.7732C515.286 56.4432 507.016 60.1032 499.236 59.5132C491.466 58.9232 480.946 55.1632 481.986 44.7732C481.716 43.3032 479.986 43.8832 478.986 43.7732C482.126 54.8032 468.716 51.7732 461.986 51.7732Z" fill="white" stroke="black"/>
<path id="ND" d="M447.986 52.7732C429.376 55.3532 407.716 52.4932 389.986 50.7732C381.706 51.7932 372.926 50.3232 364.986 49.7732C363.336 49.6632 361.636 49.7732 359.986 49.7732C356.116 49.7732 352.536 50.0032 348.986 48.7732C346.156 69.7932 344.916 91.2632 343.986 112.773C354.036 113.813 363.856 115.053 373.986 115.773C384.116 116.493 394.906 115.893 404.986 116.773C415.066 117.653 427.216 115.203 436.976 116.783C446.736 118.353 460.786 119.753 455.916 108.843C451.036 97.9432 453.696 90.8832 451.976 80.7832C450.266 70.6732 444.986 63.1132 447.986 52.7732Z" fill="white" stroke="black"/>
<path id="OR" d="M35.9858 76.7732C35.7258 89.8632 23.3258 101.773 21.9858 114.773C15.7858 115.913 13.3658 124.803 13.9858 130.773C11.9958 134.333 13.4058 138.793 12.9858 142.773C50.9558 152.253 88.0658 164.893 126.986 170.773C129.736 159.893 130.126 148.043 133.656 137.443C137.186 126.843 132.656 118.473 140.736 110.523C148.806 102.563 151.396 93.4032 144.986 84.7732C137.746 85.3232 131.726 82.1932 125.006 80.7532C118.296 79.3032 110.336 77.3532 103.006 78.7932C95.6858 80.2432 91.6158 79.7232 83.9858 78.7732C76.3658 77.8232 75.0158 72.8232 66.9858 75.7732C58.9558 78.7232 56.6958 68.8432 57.3058 63.4532C57.9158 58.0632 46.9158 54.5632 42.9858 56.7732C41.1958 63.5032 39.9558 71.1032 35.9858 76.7732Z" fill="white" stroke="black"/>
<path id="NH" d="M868.986 128.773C867.056 120.593 860.706 112.923 858.766 103.993C856.816 95.0732 853.786 86.1032 848.986 79.7732C847.346 90.0232 848.766 96.1532 843.316 105.103C837.866 114.053 845.656 128.203 842.986 137.773C852.906 137.363 861.456 134.023 868.986 128.773Z" fill="white" stroke="black"/>
<path id="VT" d="M837.986 89.7732C832.696 91.5132 826.756 94.0232 820.986 93.7732C820.906 109.583 828.136 124.803 832.986 139.773C836.216 140.203 838.716 138.073 841.986 138.773C839.706 129.763 841.856 119.733 841.986 110.773C842.116 101.813 849.526 96.9932 845.986 87.7732C843.276 88.2732 840.546 88.9332 837.986 89.7732Z" fill="white" stroke="black"/>
<g id="PA_NY">
<path d="M738.986 151.773C738.786 154.213 741.646 153.543 741.986 155.773C743.486 157.083 743.186 160.123 743.986 161.773C740.886 167.703 728.426 172.863 733.986 179.773C735.896 175.963 746.256 179.113 750.986 176.773C755.716 174.443 760.796 175.763 767.206 172.993C773.626 170.233 776.486 173.023 784.996 169.783C793.496 166.543 809.636 162.053 811.986 175.773C807.436 166.913 799.966 166.933 790.916 169.703C781.856 172.473 773.006 172.893 763.916 175.703C754.816 178.513 744.256 178.363 734.986 180.773C730.466 182.893 731.646 177.333 729.986 175.773C724.136 179.913 719.076 183.843 721.986 191.773C722.756 197.163 723.706 204.043 724.986 209.773C725.136 210.453 725.826 211.613 725.986 212.773C726.946 219.473 728.136 226.073 728.986 232.773C745.366 230.713 763.166 226.073 778.976 222.763C794.796 219.453 811.616 218.883 820.986 204.773C818.536 201.913 815.756 197.743 811.986 196.773C809.366 189.543 818.396 180.053 811.986 175.773C819.386 178.063 831.686 178.783 832.986 187.773C838.696 176.753 832.216 165.883 831.986 154.773C831.756 143.663 831.006 132.813 824.766 123.993C818.526 115.173 824.876 102.193 816.986 94.7732C798.256 94.6332 784.316 108.183 778.986 124.773C786.796 131.463 777.246 143.023 768.056 144.843C758.866 146.663 747.156 144.693 738.986 151.773Z" fill="white"/>
<path d="M811.986 175.773C809.636 162.053 793.496 166.543 784.996 169.783C776.486 173.023 773.626 170.233 767.206 172.993C760.796 175.763 755.716 174.443 750.986 176.773C746.256 179.113 735.896 175.963 733.986 179.773C728.426 172.863 740.886 167.703 743.986 161.773C743.186 160.123 743.486 157.083 741.986 155.773C741.646 153.543 738.786 154.213 738.986 151.773C747.156 144.693 758.866 146.663 768.056 144.843C777.246 143.023 786.796 131.463 778.986 124.773C784.316 108.183 798.256 94.6332 816.986 94.7732C824.876 102.193 818.526 115.173 824.766 123.993C831.006 132.813 831.756 143.663 831.986 154.773C832.216 165.883 838.696 176.753 832.986 187.773C831.686 178.783 819.386 178.063 811.986 175.773ZM811.986 175.773C807.436 166.913 799.966 166.933 790.916 169.703C781.856 172.473 773.006 172.893 763.916 175.703C754.816 178.513 744.256 178.363 734.986 180.773C730.466 182.893 731.646 177.333 729.986 175.773C724.136 179.913 719.076 183.843 721.986 191.773C722.756 197.163 723.706 204.043 724.986 209.773C725.136 210.453 725.826 211.613 725.986 212.773C726.946 219.473 728.136 226.073 728.986 232.773C745.366 230.713 763.166 226.073 778.976 222.763C794.796 219.453 811.616 218.883 820.986 204.773C818.536 201.913 815.756 197.743 811.986 196.773C809.366 189.543 818.396 180.053 811.986 175.773Z" stroke="black"/>
</g>
<g id="WI">
<path d="M563.986 95.7732C562.336 96.1032 557.546 95.2032 559.986 94.7732C559.236 95.3032 558.656 96.2932 557.986 96.7732C557.386 97.8632 555.026 100.043 552.986 101.773C561.066 105.823 569.586 108.643 578.996 109.763C588.406 110.893 595.586 116.833 595.986 126.773C599.476 122.153 601.756 115.963 604.986 110.773C613.746 112.793 626.386 97.2232 635.986 105.773C636.176 106.093 636.646 106.623 636.986 106.773C638.336 104.983 638.686 101.733 641.986 102.773C641.406 101.933 640.276 100.163 641.986 99.7732C641.976 99.2732 641.986 98.7732 641.986 98.7732C641.886 98.5032 640.946 95.7432 640.986 95.7732C637.216 95.6732 635.556 96.4232 631.986 93.7732C631.326 93.6932 628.656 94.2632 626.986 94.7732C625.316 95.2832 622.926 92.7632 622.986 92.7732C619.836 93.2732 617.546 93.6532 614.986 92.7732C614.666 92.9732 614.186 93.4532 613.986 93.7732C611.346 100.683 605.316 99.0732 599.996 98.7632C594.676 98.4532 592.216 89.6132 586.066 92.8532C579.916 96.0832 577.516 95.4932 576.986 87.7732C573.386 91.2432 569.026 94.7732 563.986 95.7732Z" fill="white"/>
<path d="M521.986 106.773C521.936 108.573 522.476 111.053 521.986 112.773C524.096 112.373 522.006 109.243 523.986 108.773C525.716 116.263 515.956 117.293 514.986 123.773C523.896 126.193 513.276 141.483 519.756 145.003C526.236 148.523 530.866 152.143 535.906 156.853C540.946 161.553 546.336 167.083 545.646 175.093C544.966 183.113 549.226 186.543 554.986 190.773C568.746 187.343 586.316 192.763 598.986 186.773C594.786 179.773 594.296 169.713 595.986 161.773C597.676 153.833 596.696 143.923 600.986 136.773C600.996 135.503 601.546 133.273 599.986 132.773C597.616 136.363 596.346 142.943 590.986 142.773C589.806 137.873 593.666 135.063 595.286 131.073C596.906 127.093 590.666 122.763 592.986 117.773C588.506 111.833 581.776 113.453 575.986 110.773C570.196 108.093 561.256 109.333 555.966 105.793C550.666 102.253 542.916 102.453 541.986 96.7732C540.846 96.1332 540.386 96.2232 538.986 95.7732C533.166 102.283 523.286 96.8532 521.986 106.773Z" fill="white"/>
<path d="M563.986 95.7732C562.336 96.1032 557.546 95.2032 559.986 94.7732C559.236 95.3032 558.656 96.2932 557.986 96.7732C557.386 97.8632 555.026 100.043 552.986 101.773C561.066 105.823 569.586 108.643 578.996 109.763C588.406 110.893 595.586 116.833 595.986 126.773C599.476 122.153 601.756 115.963 604.986 110.773C613.746 112.793 626.386 97.2232 635.986 105.773C636.176 106.093 636.646 106.623 636.986 106.773C638.336 104.983 638.686 101.733 641.986 102.773C641.406 101.933 640.276 100.163 641.986 99.7732C641.976 99.2732 641.986 98.7732 641.986 98.7732C641.886 98.5032 640.946 95.7432 640.986 95.7732C637.216 95.6732 635.556 96.4232 631.986 93.7732C631.326 93.6932 628.656 94.2632 626.986 94.7732C625.316 95.2832 622.926 92.7632 622.986 92.7732C619.836 93.2732 617.546 93.6532 614.986 92.7732C614.666 92.9732 614.186 93.4532 613.986 93.7732C611.346 100.683 605.316 99.0732 599.996 98.7632C594.676 98.4532 592.216 89.6132 586.066 92.8532C579.916 96.0832 577.516 95.4932 576.986 87.7732C573.386 91.2432 569.026 94.7732 563.986 95.7732Z" stroke="black"/>
<path d="M521.986 106.773C521.936 108.573 522.476 111.053 521.986 112.773C524.096 112.373 522.006 109.243 523.986 108.773C525.716 116.263 515.956 117.293 514.986 123.773C523.896 126.193 513.276 141.483 519.756 145.003C526.236 148.523 530.866 152.143 535.906 156.853C540.946 161.553 546.336 167.083 545.646 175.093C544.966 183.113 549.226 186.543 554.986 190.773C568.746 187.343 586.316 192.763 598.986 186.773C594.786 179.773 594.296 169.713 595.986 161.773C597.676 153.833 596.696 143.923 600.986 136.773C600.996 135.503 601.546 133.273 599.986 132.773C597.616 136.363 596.346 142.943 590.986 142.773C589.806 137.873 593.666 135.063 595.286 131.073C596.906 127.093 590.666 122.763 592.986 117.773C588.506 111.833 581.776 113.453 575.986 110.773C570.196 108.093 561.256 109.333 555.966 105.793C550.666 102.253 542.916 102.453 541.986 96.7732C540.846 96.1332 540.386 96.2232 538.986 95.7732C533.166 102.283 523.286 96.8532 521.986 106.773Z" stroke="black"/>
</g>
<path id="MI" d="M632.986 126.773C632.686 127.413 632.226 128.103 631.986 128.773C631.976 136.253 628.826 132.613 627.986 126.773C626.006 131.213 621.076 134.383 621.986 139.773C621.586 141.913 621.066 145.173 619.986 146.773C618.926 152.373 621.006 157.223 619.986 162.773C620.756 164.823 620.756 167.743 620.986 168.773C621.506 170.033 622.556 171.733 622.986 172.773C626.546 177.233 625.836 193.043 620.986 199.773C621.126 199.743 631.586 201.393 636.766 199.553C641.946 197.703 651.116 198.483 656.986 197.773C662.856 197.063 670.176 197.593 672.986 191.773C673.126 190.383 673.646 188.403 674.986 187.773C677.676 182.683 684.786 172.573 683.986 166.773C683.346 164.803 682.666 162.683 681.986 160.773C679.856 158.893 678.516 152.773 678.986 149.773C678.026 148.913 676.066 146.233 675.986 144.773C667.866 146.703 670.176 153.813 662.956 155.743C655.746 157.673 656.396 145.633 661.906 141.693C667.426 137.763 660.546 125.893 661.986 120.773C657.466 117.393 651.626 114.463 645.986 112.773C639.816 109.223 633.376 114.433 638.986 119.773C635.136 120.413 634.236 124.163 632.986 126.773Z" fill="white" stroke="black"/>
<path id="SD" d="M455.986 118.773C418.246 118.753 380.306 119.413 343.986 113.773C342.446 135.443 339.596 156.853 338.986 178.773C352.966 179.733 368.266 180.323 381.986 181.773C395.706 183.223 413.506 178.453 425.906 182.853C438.316 187.243 448.356 183.913 457.986 193.773C457.066 184.613 458.076 178.653 458.986 169.773C459.896 160.893 458.086 148.803 458.986 139.773C459.886 130.743 448.976 126.963 455.986 118.773Z" fill="white" stroke="black"/>
<path id="WY" d="M339.986 134.773C303.486 133.393 268.096 127.613 231.986 124.773C228.536 153.603 223.526 181.993 219.986 210.773C257.946 215.003 295.196 221.943 333.986 222.773C336.236 193.493 338.346 164.193 339.986 134.773Z" fill="white" stroke="black"/>
<path id="MA" d="M869.986 155.773C870.766 156.583 871.356 156.773 871.986 157.773C874.336 157.893 875.796 155.483 876.986 153.773C880.226 154.683 882.876 154.593 884.986 151.773C877.096 153.483 877.346 142.213 869.986 142.773C868.936 138.623 871.376 135.513 872.986 132.773C866.456 127.423 862.846 136.933 855.056 136.843C847.266 136.763 840.766 141.833 832.986 141.773C836.116 148.413 826.936 157.823 838.966 155.753C850.986 153.673 861.196 146.643 869.986 155.773Z" fill="white" stroke="black"/>
<path id="CA" d="M2.98582 213.773C6.65582 217.053 11.8558 228.673 9.98582 232.773C10.2158 232.933 9.87582 234.293 9.98582 234.773C11.6358 236.903 14.4758 238.663 15.9858 240.773C17.4958 238.543 16.9658 233.873 20.9858 234.773C22.0458 238.143 25.5958 237.343 27.9858 238.773C26.3058 242.173 20.8258 235.263 19.2358 239.033C17.6558 242.803 22.4958 246.743 20.9858 250.773C17.1458 252.243 18.2458 246.383 14.9858 246.773C7.97582 258.083 30.2858 264.173 17.9858 271.773C17.8058 280.243 23.2858 285.553 25.2958 293.463C27.2958 301.373 35.4258 304.653 32.0058 313.793C28.5958 322.943 37.8158 324.683 44.9858 327.773C48.5958 329.333 49.8258 330.283 51.9858 333.773C52.8258 335.123 54.3258 336.643 54.9858 337.773C58.0258 340.153 65.7058 340.603 64.9858 345.773C66.0358 350.823 74.8358 352.013 77.7358 358.023C80.6458 364.033 81.7558 372.793 81.9858 379.773C93.5058 379.993 104.576 382.043 115.986 382.773C121.036 382.773 128.776 387.643 130.986 380.773C123.836 377.423 128.936 370.813 131.666 366.453C134.386 362.093 133.796 353.713 140.986 352.773C138.666 335.043 126.166 320.483 116.736 306.023C107.306 291.563 96.2458 278.493 88.2358 263.523C80.2158 248.553 61.1458 237.123 64.2058 218.993C67.2658 200.873 76.4058 180.633 77.9858 161.773C58.4658 153.303 33.8758 154.573 14.9858 144.773C11.5758 146.053 12.5558 158.093 9.75582 162.543C6.95582 166.993 3.65582 171.733 0.985816 176.773C-1.68418 181.813 7.59582 189.113 5.98582 194.773C4.36582 200.423 3.05582 207.673 2.98582 213.773Z" fill="white" stroke="black"/>
<path id="RI" d="M867.986 162.773C868.856 161.983 872.696 160.583 872.986 159.773C873.146 159.313 872.216 158.133 871.986 157.773C871.356 156.773 870.766 156.583 869.986 155.773C868.956 155.643 868.396 154.603 867.986 153.773C865.526 154.893 870.006 158.503 866.986 159.773C866.856 156.613 865.526 153.793 864.986 150.773C856.336 151.133 862.616 159.603 862.986 164.773C864.856 164.693 866.366 163.603 867.986 162.773Z" fill="white" stroke="black"/>
<path id="CT" d="M858.986 152.773C850.876 154.093 843.186 156.923 834.986 157.773C835.226 164.903 836.206 172.383 837.986 178.773C843.966 170.973 853.516 168.963 861.986 165.773C860.746 161.483 859.476 157.233 858.986 152.773Z" fill="white" stroke="black"/>
<path id="NV" d="M137.986 329.773C137.476 324.103 137.476 317.443 137.986 311.773C138.016 310.633 139.516 310.053 138.986 308.773C143.686 307.043 145.946 311.713 149.986 311.773C157.356 268.353 167.586 225.673 172.986 181.773C141.756 176.213 110.806 169.733 79.9858 162.773C75.2558 179.963 73.6358 197.323 67.3158 214.103C60.9858 230.883 76.0058 243.073 84.7358 256.023C93.4558 268.983 101.876 281.583 110.216 294.543C118.556 307.503 127.496 318.953 135.986 331.773C136.786 331.423 137.576 330.403 137.986 329.773Z" fill="white" stroke="black"/>
<path id="IA" d="M524.986 236.773C526.566 236.683 528.016 235.943 528.986 235.773C528.036 235.553 526.246 236.163 525.986 234.773C532.686 234.123 539.476 232.223 543.986 238.773C545.146 233.333 550.226 229.403 550.986 223.773C542.746 215.333 557.426 215.573 560.216 208.003C563.006 200.433 555.366 196.053 552.986 188.773C539.736 191.013 549.026 173.353 541.986 170.773C534.946 168.193 523.006 172.283 514.986 171.773C506.966 171.263 496.636 173.323 487.986 172.773C479.336 172.223 468.806 173.183 459.986 172.773C461.376 178.763 457.206 185.393 458.686 191.073C460.166 196.763 464.946 200.993 465.216 207.543C465.486 214.093 471.216 217.813 470.656 225.103C470.096 232.393 473.626 239.033 481.986 236.773C490.346 234.513 497.286 238.823 504.916 236.703C512.536 234.583 518.056 236.433 524.986 236.773Z" fill="white" stroke="black"/>
<path id="NJ" d="M833.986 205.773C832.546 204.383 832.516 199.893 832.986 197.773C831.816 196.253 829.376 196.463 827.986 194.773C835.356 185.233 826.046 179.533 816.986 178.773C814.346 183.753 814.006 189.313 812.986 194.773C816.626 197.543 820.126 201.133 822.986 204.773C820.046 209.293 813.216 212.633 813.016 218.743C812.806 224.853 825.126 224.473 826.986 228.773C828.466 220.503 834.316 214.613 833.986 205.773Z" fill="white" stroke="black"/>
<path id="NE" d="M367.986 241.773C367.986 243.773 367.986 245.773 367.986 247.773C403.956 249.913 440.436 249.953 476.986 249.773C473.386 243.153 469.596 235.373 468.986 227.773C468.376 220.173 465.536 210.293 462.956 203.803C460.386 197.303 455.846 189.713 448.056 188.703C440.266 187.693 432.836 187.203 424.986 183.773C417.136 180.343 404.486 185.683 395.986 182.773C387.486 179.863 375.026 184.903 366.206 182.553C357.396 180.193 347.826 182.063 338.986 179.773C337.686 188.303 337.926 197.163 336.986 205.773C336.046 214.383 333.716 224.133 343.976 223.783C354.246 223.433 359.306 225.603 368.986 225.773C368.856 231.323 367.986 236.163 367.986 241.773Z" fill="white" stroke="black"/>
<path id="UT" d="M220.986 189.773C205.446 188.173 190.736 183.433 174.986 182.773C169.556 219.443 161.856 255.503 154.986 291.773C183.396 295.863 211.306 301.873 239.986 304.773C242.846 275.143 246.556 245.733 251.986 216.773C241.296 213.973 229.986 213.363 218.986 211.773C218.926 204.243 220.866 197.233 220.986 189.773Z" fill="white" stroke="black"/>
<path id="OH" d="M710.986 189.773C705.916 195.203 702.996 196.743 695.986 197.773C689.926 204.923 682.866 198.973 675.986 196.773C669.106 194.583 659.096 201.103 651.986 199.773C654.746 219.093 656.286 238.713 659.986 257.773C664.286 257.073 668.946 257.983 669.986 262.773C672.546 261.683 675.636 261.883 676.986 264.773C680.046 263.303 682.946 261.993 685.986 264.773C687.126 262.223 690.406 261.533 692.986 261.773C692.826 264.903 696.606 265.693 698.986 265.773C699.486 265.793 700.576 265.573 700.986 265.773C704.966 263.443 700.626 249.443 708.986 253.773C707.226 244.213 717.246 244.193 721.236 238.023C725.226 231.853 720.886 219.143 723.986 212.773C724.016 212.273 724.046 211.263 723.986 210.773C723.276 204.753 721.996 198.733 720.986 192.773C721.576 189.833 719.396 187.683 719.986 184.773C716.876 185.913 713.746 187.713 710.986 189.773Z" fill="white" stroke="black"/>
<path id="IL" d="M598.986 189.773C584.436 189.603 570.546 192.043 555.986 191.773C565.966 199.043 564.166 216.483 549.986 216.773C555.516 226.793 545.726 233.513 543.986 242.773C542.246 252.033 551.206 259.343 557.986 263.773C555.796 273.553 573.146 269.083 567.316 279.103C561.486 289.113 571.696 290.873 577.736 294.023C583.776 297.173 579.976 309.133 585.986 312.773C588.756 307.753 594.006 306.723 598.986 309.773C598.386 305.763 598.926 300.653 603.986 300.773C603.576 291.503 607.016 283.673 610.216 275.003C613.406 266.333 609.366 256.513 609.986 246.773C610.606 237.033 606.836 225.573 606.986 215.773C607.136 205.973 602.666 198.313 598.986 189.773Z" fill="white" stroke="black"/>
<path id="IN" d="M616.986 203.773C616.196 204.603 616.396 204.863 614.986 204.773C613.596 207.003 610.436 206.863 607.986 206.773C609.686 216.673 608.796 226.993 610.986 236.773C613.176 246.553 609.506 256.453 612.056 265.703C614.616 274.943 606.666 281.603 606.986 290.773C615.776 290.203 623.026 287.373 630.986 287.773C630.416 284.833 633.286 283.333 633.986 280.773C636.846 281.553 637.516 284.863 640.986 283.773C643.026 278.273 645.886 274.713 648.066 269.853C650.246 265.003 658.986 265.683 657.056 258.853C655.126 252.013 657.666 245.883 655.766 238.993C653.856 232.103 654.306 226.543 652.976 219.783C651.656 213.013 651.766 206.593 650.986 199.773C639.746 201.493 627.946 201.023 616.986 203.773Z" fill="white" stroke="black"/>
<path id="WV" d="M723.986 210.773C724.046 211.263 724.016 212.273 723.986 212.773C723.456 220.403 726.046 230.403 722.986 237.773C719.926 245.153 707.136 243.813 710.986 254.773C708.666 255.463 704.916 254.723 704.216 258.003C703.516 261.283 705.166 267.913 700.986 265.773C700.576 265.573 699.486 265.793 698.986 265.773C696.356 275.533 707.666 283.483 713.686 288.073C719.716 292.653 731.306 288.923 737.736 283.523C744.166 278.123 741.926 262.303 747.986 255.773C756.126 262.483 754.336 250.303 758.306 247.093C762.276 243.883 768.016 239.793 765.986 232.773C769.686 232.313 771.806 235.683 774.986 236.773C777.016 226.643 768.266 230.083 762.986 232.773C757.706 235.463 752.026 236.903 747.986 242.773C745.996 241.213 747.816 238.983 747.986 237.773C748.166 236.493 747.816 236.423 746.986 235.773C745.806 237.583 745.426 232.743 744.986 231.773C739.316 232.833 733.556 233.433 727.986 234.773C726.616 227.433 725.666 219.473 725.986 212.773C725.826 211.613 725.136 210.453 724.986 209.773C724.916 210.123 724.096 210.513 723.986 210.773Z" fill="white" stroke="black"/>
<path id="CO" d="M342.986 314.773C344.566 314.863 346.016 315.603 346.986 315.773C352.316 315.773 357.656 315.773 362.986 315.773C363.206 298.853 363.556 282.423 364.986 265.773C365.106 264.433 365.816 263.563 365.986 262.773C367.306 256.773 365.986 248.943 365.986 242.773C365.986 240.003 366.786 236.813 366.986 234.773C366.986 232.103 366.986 229.443 366.986 226.773C328.806 224.163 290.456 222.153 252.986 216.773C248.496 246.333 244.656 276.033 240.986 305.773C274.956 308.903 308.746 312.793 342.986 314.773Z" fill="white" stroke="black"/>
<path id="MD" d="M746.986 235.773C747.816 236.423 748.166 236.493 747.986 237.773C747.986 238.773 747.986 239.773 747.986 240.773C751.626 238.003 755.116 234.413 757.986 230.773C763.886 233.203 767.746 225.483 773.736 229.023C779.726 232.563 779.336 236.643 786.316 238.443C793.286 240.243 791.016 245.113 788.986 251.773C794.276 248.343 799.316 255.003 803.986 253.773C795.996 245.503 795.026 231.413 802.986 222.773C807.606 223.813 805.526 227.063 803.986 229.773C804.146 230.213 803.836 231.323 803.986 231.773C805.136 235.113 804.426 239.843 807.986 241.773C806.616 244.223 804.876 250.163 810.016 249.743C815.146 249.323 813.856 254.973 817.986 254.773C817.706 256.053 818.746 258.273 816.986 258.773C817.186 260.993 816.086 264.373 817.986 265.773C819.816 260.873 821.366 255.373 822.986 250.773C822.646 248.223 824.656 246.383 823.986 243.773C821.146 245.103 817.716 244.123 814.986 245.773C811.146 239.363 811.136 231.663 808.986 224.773C808.686 223.823 807.826 224.383 807.986 222.773C806.086 215.593 795.646 221.183 789.206 221.993C782.766 222.803 774.856 226.163 767.996 226.783C761.136 227.393 753.996 230.543 746.986 230.773C747.346 232.333 746.516 234.253 746.986 235.773Z" fill="white" stroke="black"/>
<g id="DE">
<path d="M807.986 222.773C807.826 224.383 808.686 223.823 808.986 224.773C811.456 227.883 813.156 237.923 814.986 243.773C818.216 244.333 820.976 242.983 823.986 242.773C821.386 233.323 812.116 225.973 809.986 215.773C809.136 217.203 808.136 221.213 807.986 222.773Z" fill="white"/>
<path d="M823.986 236.773C823.856 235.983 825.216 231.973 824.986 230.773C825.516 225.083 817.946 226.993 814.986 223.773C815.576 229.753 821.186 232.303 823.986 236.773Z" fill="white"/>
<path d="M807.986 222.773C807.826 224.383 808.686 223.823 808.986 224.773C811.456 227.883 813.156 237.923 814.986 243.773C818.216 244.333 820.976 242.983 823.986 242.773C821.386 233.323 812.116 225.973 809.986 215.773C809.136 217.203 808.136 221.213 807.986 222.773Z" stroke="black"/>
<path d="M823.986 236.773C823.856 235.983 825.216 231.973 824.986 230.773C825.516 225.083 817.946 226.993 814.986 223.773C815.576 229.753 821.186 232.303 823.986 236.773Z" stroke="black"/>
</g>
<path id="VA" d="M702.986 309.773C704.266 309.593 705.196 308.973 705.986 308.773C706.256 308.503 714.776 304.763 720.986 304.773C727.206 304.793 734.876 302.743 741.206 301.993C747.546 301.243 754.746 299.983 761.006 298.793C767.276 297.613 773.986 296.583 780.056 294.843C786.136 293.113 794.356 294.193 800.006 291.793C805.666 289.403 814.666 290.853 818.986 286.773C819.106 286.793 814.316 281.123 813.986 280.773C813.236 279.983 813.036 279.413 811.986 278.773C809.096 277.013 805.116 275.583 802.986 272.773C805.236 272.633 806.696 274.933 808.986 274.773C808.826 274.033 810.936 270.543 809.986 268.773C809.716 268.273 808.376 268.063 807.986 267.773C806.276 268.413 805.636 267.333 803.256 265.523C800.876 263.713 806.606 264.173 805.986 261.773C802.826 258.733 799.626 257.753 795.686 256.073C791.736 254.403 792.746 249.983 787.986 253.773C786.676 248.543 790.616 244.793 789.986 239.773C784.066 241.253 780.996 235.713 776.986 233.773C777.346 241.023 770.306 235.443 766.986 234.773C768.816 241.723 762.506 245.673 758.906 249.693C755.316 253.723 755.656 263.153 747.986 257.773C743.596 265.903 744.536 280.083 737.206 284.993C729.876 289.913 717.246 296.303 710.986 287.773C704.566 294.873 698.246 303.293 689.986 308.773C693.376 309.033 699.306 309.583 702.986 309.773Z" fill="white" stroke="black"/>
<path id="MO" d="M524.986 236.773C522.336 236.923 519.636 236.773 516.986 236.773C514.236 237.043 510.406 237.773 506.986 237.773C498.086 237.043 493.296 238.753 483.986 237.773C474.676 236.793 474.196 239.543 477.216 246.543C480.236 253.543 488.066 252.003 485.916 258.703C483.756 265.403 492.046 265.113 492.986 271.773C493.926 278.433 492.316 286.283 492.986 293.773C493.656 301.263 493.466 307.433 493.986 315.773C494.506 324.113 490.686 329.153 502.986 328.773C515.286 328.393 534.356 327.633 545.986 326.773C557.616 325.913 580.186 321.463 569.986 336.773C573.886 337.023 577.546 336.223 580.986 334.773C580.976 329.853 580.546 320.813 587.986 322.773C587.986 319.773 587.986 316.773 587.986 313.773C578.366 313.443 583.046 299.943 576.736 296.023C570.416 292.113 560.996 290.003 566.006 279.793C571.026 269.583 554.396 275.413 556.986 264.773C538.836 260.043 549.786 232.133 528.986 235.773C528.016 235.943 526.566 236.683 524.986 236.773Z" fill="white" stroke="black"/>
<path id="KS" d="M365.986 262.773C365.816 263.563 365.106 264.433 364.986 265.773C367.726 274.593 364.756 285.363 364.986 294.773C365.216 304.183 360.316 317.133 371.986 316.773C383.656 316.413 392.356 315.903 402.916 316.843C413.466 317.793 422.726 317.273 432.976 317.783C443.236 318.283 452.726 319.283 462.986 318.773C473.246 318.263 481.666 317.443 491.986 317.773C494.606 305.783 488.856 293.403 490.986 281.773C493.116 270.143 481.076 264.953 485.986 255.773C468.226 247.993 446.756 253.023 426.986 251.773C407.216 250.523 386.956 250.273 366.986 249.773C367.416 254.013 366.856 261.363 365.986 262.773Z" fill="white" stroke="black"/>
<path id="KY" d="M668.986 263.773C667.966 259.023 663.286 258.033 658.986 258.773C660.596 263.193 656.256 269.073 651.986 266.773C647.086 273.033 643.276 291.173 633.986 282.773C633.456 285.303 631.646 287.213 630.986 289.773C627.836 287.763 624.746 287.633 622.986 291.773C618.026 290.223 612.976 290.983 607.986 291.773C607.156 295.033 604.046 297.443 605.986 300.773C601.656 301.903 598.226 305.283 600.986 309.773C598.096 313.463 592.426 306.553 590.316 310.103C588.206 313.653 591.886 319.383 588.986 322.773C595.266 321.663 608.286 325.423 608.986 317.773C628.896 319.023 649.626 311.473 668.986 311.773C688.346 312.073 698.926 301.183 709.986 286.773C702.846 283.013 696.566 275.303 697.986 266.773C695.556 266.873 691.856 265.733 691.986 262.773C684.506 267.503 677.136 264.673 668.986 263.773Z" fill="white" stroke="black"/>
<path id="NC" d="M785.986 355.773C788.636 354.183 791.836 353.633 794.986 353.773C796.786 341.603 807.246 330.763 818.986 328.773C823.966 320.983 807.766 330.633 808.986 323.773C810.876 325.803 812.596 325.613 814.986 324.773C816.896 319.153 814.296 316.083 806.986 315.773C810.856 316.513 812.526 313.213 815.986 313.773C818.276 313.853 821.086 314.203 822.986 312.773C824.626 309.933 826.506 306.253 825.986 302.773C823.346 300.473 823.056 303.823 820.986 304.773C821.116 294.703 806.916 310.673 807.986 298.773C811.016 306.673 813.556 297.133 818.986 296.773C817.536 293.543 818.726 292.953 820.986 292.773C813.996 285.883 801.656 293.973 790.996 294.783C780.326 295.583 768.336 299.793 757.206 300.993C746.076 302.193 733.716 306.163 721.986 305.773C720.116 318.093 707.766 319.603 700.236 327.023C692.706 334.443 681.616 336.893 678.986 347.773C686.666 344.653 696.626 348.553 703.736 343.523C710.856 338.503 716.296 338.683 724.986 336.773C733.676 334.863 740.776 341.113 747.966 341.753C755.156 342.383 764.156 337.263 769.736 344.023C775.316 350.773 780.366 349.783 785.986 355.773Z" fill="white" stroke="black"/>
<path id="AZ" d="M139.986 311.773C140.506 317.523 140.386 324.813 138.986 329.773C137.356 335.543 136.386 341.853 141.216 347.543C146.046 353.243 134.266 355.383 134.916 360.703C135.566 366.013 123.836 372.063 129.236 377.523C134.636 382.983 124.476 386.223 125.986 389.773C131.676 389.493 137.776 398.453 143.686 400.073C149.586 401.703 155.186 407.953 161.216 410.543C167.246 413.133 173.166 417.223 179.216 420.543C185.266 423.863 193.426 426.823 199.986 427.773C201.566 428.003 203.966 428.633 204.986 428.773C208.896 428.213 212.386 429.293 215.986 429.773C218.876 430.163 221.236 429.983 223.986 430.773C230.656 389.803 234.056 347.943 239.986 306.773C211.546 302.833 183.526 297.233 154.986 293.773C153.926 300.283 154.456 305.283 151.736 311.523C149.016 317.773 141.866 306.043 139.986 311.773Z" fill="white" stroke="black"/>
<path id="NM" d="M226.986 431.773C231.606 432.693 236.356 431.923 240.986 432.773C241.226 431.593 240.266 425.963 241.986 427.773C242.336 427.213 244.356 424.063 244.986 423.773C243.756 423.873 243.086 424.273 241.986 424.773C243.056 421.213 251.356 422.473 253.986 423.773C256.396 424.163 258.636 424.413 260.986 424.773C263.366 425.133 265.826 424.633 267.986 425.773C271.816 426.483 269.916 424.083 269.986 421.773C279.786 420.823 288.706 422.343 298.986 423.773C309.256 425.203 317.946 424.113 328.916 425.843C339.886 427.583 338.176 415.263 338.656 405.443C339.136 395.623 339.966 384.533 340.986 374.773C342.016 365.013 342.156 354.483 342.986 344.773C343.816 335.063 345.376 325.113 343.986 315.773C344.936 315.573 346.046 316.023 346.986 315.773C346.016 315.603 344.566 314.863 342.986 314.773C309.406 316.273 274.556 310.173 240.986 306.773C240.736 313.033 240.096 319.813 238.986 325.773C237.876 331.733 237.726 337.803 236.916 343.703C236.106 349.593 235.386 355.713 234.766 361.553C234.146 367.393 233.426 374.043 232.916 379.703C232.396 385.363 230.106 391.503 229.986 396.773C229.866 402.043 227.986 410.453 227.976 414.763C227.966 419.083 223.836 429.633 226.986 431.773Z" fill="white" stroke="black"/>
<path id="TN" d="M705.986 308.773C705.196 308.973 704.266 309.593 702.986 309.773C672.396 313.113 641.976 317.093 610.986 318.773C607.196 328.513 592.336 321.543 583.986 324.773C582.016 332.733 581.526 342.143 574.986 347.773C576.326 351.723 575.646 355.133 573.986 358.773C577.896 358.263 582.106 359.453 585.986 358.773C586.946 358.603 588.456 357.863 589.986 357.773C619.646 355.673 648.746 351.443 677.986 347.773C684.006 328.103 712.186 324.833 719.986 306.773C715.306 307.493 710.536 307.643 705.986 308.773Z" fill="white" stroke="black"/>
<path id="OK" d="M467.986 390.773C471.176 390.493 474.786 389.483 477.986 388.773C484.246 384.223 489.676 390.623 495.986 391.773C497.186 367.233 494.806 343.553 492.986 319.773C444.226 321.253 395.426 319.263 346.986 316.773C347.546 320.003 346.196 322.763 345.986 325.773C354.266 326.493 361.666 326.863 369.986 327.773C378.306 328.683 386.356 326.763 394.976 327.783C403.606 328.803 397.066 339.853 398.986 346.773C400.906 353.693 396.196 363.663 398.066 370.693C399.946 377.723 409.856 373.443 413.086 378.673C416.316 383.903 426.646 382.183 430.986 381.773C432.146 384.183 434.676 386.043 434.986 388.773C439.446 385.743 446.826 387.623 449.986 390.773C453.056 384.323 463.156 391.193 467.986 390.773Z" fill="white" stroke="black"/>
<path id="AR" d="M566.986 337.773C573.116 331.333 572.426 325.783 563.656 327.443C554.886 329.103 549.346 328.573 540.986 328.773C532.626 328.973 526.026 329.553 517.986 329.773C509.946 329.993 503.056 331.033 494.986 330.773C498.486 350.833 498.246 371.783 497.986 392.773C500.806 392.683 503.046 394.443 505.986 393.773C500.636 408.173 515.046 408.173 523.986 405.773C532.936 403.373 547.076 407.543 554.956 404.743C562.846 401.953 552.766 387.403 559.676 381.463C566.596 375.533 565.316 367.383 571.066 360.853C576.806 354.313 572.776 344.083 578.986 337.773C574.986 337.773 570.986 337.773 566.986 337.773Z" fill="white" stroke="black"/>
<path id="TX" d="M277.986 433.773C284.956 434.513 285.716 444.813 291.736 448.023C297.766 451.233 302.086 457.053 303.986 463.773C304.866 466.873 304.376 472.473 306.296 475.463C308.206 478.463 311.186 479.813 312.986 482.773C317.486 486.933 322.606 487.443 327.216 491.543C331.826 495.643 339.496 487.413 339.756 482.543C340.016 477.673 353.316 472.833 353.986 476.773C356.496 476.053 358.786 477.233 360.986 477.773C370.046 479.983 381.326 491.293 383.286 501.473C385.256 511.643 397.746 520.613 401.986 529.773C403.846 533.803 403.266 538.593 404.986 542.773C408.016 550.123 410.536 553.403 417.236 557.523C423.926 561.643 431.986 560.533 438.986 563.773C440.626 564.533 441.926 567.273 443.986 566.773C448.226 564.423 442.106 556.433 442.006 552.753C441.916 549.063 438.616 541.663 441.986 537.773C440.986 537.663 439.256 538.243 438.986 536.773C437.136 536.273 436.856 534.143 435.986 532.773C438.886 532.183 441.046 534.363 443.986 533.773C445.156 529.913 445.656 526.143 441.986 523.773C444.976 524.073 447.816 523.883 449.986 521.773C446.256 518.613 450.266 514.443 454.986 515.773C453.916 511.133 456.216 510.533 459.986 511.773C462.336 509.423 458.756 507.313 458.986 504.773C461.226 505.123 464.616 508.713 463.986 503.773C467.596 507.593 472.446 503.133 476.986 503.773C477.796 501.493 482.966 499.263 484.986 497.773C487.346 495.273 488.466 491.233 491.986 489.773C488.416 485.973 489.796 478.843 495.986 479.773C492.446 487.793 503.236 484.263 506.986 481.773C514.056 475.613 513.556 464.353 515.986 454.773C518.416 445.203 509.126 438.153 505.916 429.843C502.696 421.543 506.396 405.133 504.986 395.773C495.296 394.213 487.506 388.423 477.986 388.773C474.786 389.483 471.176 390.493 467.986 390.773C462.636 396.473 453.456 382.903 449.986 392.773C445.196 389.663 439.596 387.113 433.986 389.773C431.416 378.103 413.206 388.503 409.986 376.773C387.166 378.963 400.016 344.913 397.986 330.773C387.156 329.203 376.216 328.773 364.986 328.773C361.236 328.773 356.996 328.063 353.986 327.773C341.176 325.093 344.796 340.823 343.986 349.773C343.176 358.723 342.856 369.673 341.986 378.773C341.116 387.873 340.196 398.663 339.986 407.773C339.766 416.883 340.326 430.063 328.986 427.773C317.646 425.483 310.576 426.883 300.006 425.753C289.446 424.623 282.556 422.623 271.986 422.773C272.326 427.293 276.956 429.303 277.986 433.773Z" fill="white" stroke="black"/>
<path id="SC" d="M746.986 403.773C747.236 404.033 747.646 404.623 747.986 404.773C748.796 404.023 752.346 400.393 751.986 400.773C758.776 393.573 767.176 385.853 773.986 378.773C777.926 372.413 774.506 361.733 783.986 357.773C780.216 350.353 772.966 349.853 766.736 344.023C760.506 338.193 749.276 344.363 740.986 342.773C738.436 334.673 726.206 337.663 718.996 338.783C711.786 339.903 706.376 341.263 700.296 347.083C694.206 352.893 707.656 355.303 709.686 361.073C711.716 366.843 720.486 369.273 723.756 374.003C727.026 378.733 736.216 382.373 738.206 387.553C740.206 392.723 747.846 399.143 746.986 403.773Z" fill="white" stroke="black"/>
<path id="GA" d="M749.986 406.773C748.856 405.133 750.066 405.703 747.986 404.773C747.646 404.623 747.236 404.033 746.986 403.773C742.886 395.663 736.306 389.573 730.736 383.023C725.176 376.473 717.116 372.423 711.736 366.023C706.366 359.623 695.186 354.323 698.986 346.773C684.846 347.953 671.196 350.963 656.986 351.773C663.256 366.563 662.976 384.143 670.216 398.543C677.456 412.953 672.076 429.303 680.986 443.773C698.816 445.383 719.306 436.263 734.986 443.773C733.166 436.393 736.716 431.603 743.986 434.773C741.126 429.183 747.246 423.843 741.986 420.773C748.846 421.263 743.286 408.053 749.986 406.773Z" fill="white" stroke="black"/>
<path id="AL" d="M615.986 458.773C618.316 457.943 620.176 458.123 621.986 458.773C624.146 458.343 624.056 460.553 624.986 461.773C627.116 461.583 628.936 461.183 630.986 460.773C632.586 459.223 631.736 454.833 631.986 452.773C622.926 441.353 639.726 444.043 647.766 442.553C655.806 441.063 667.006 437.893 675.986 438.773C673.646 423.633 674.216 408.673 667.766 394.993C661.316 381.323 661.046 366.733 655.986 352.773C641.116 353.343 626.746 355.863 611.986 356.773C610.106 391.603 611.526 425.413 615.986 458.773Z" fill="white" stroke="black"/>
<path id="LA_MS" d="M585.986 358.773C586.936 358.993 588.726 358.383 588.986 359.773C583.046 359.023 577.806 361.093 571.986 360.773C567.956 370.913 562.786 377.303 558.966 387.753C555.136 398.193 563.016 411.193 563.956 420.743C564.896 430.303 548.996 438.453 553.986 449.773C563.696 450.263 572.456 448.033 581.986 447.773C591.516 447.513 587.076 460.863 593.986 465.773C588.346 462.083 585.036 455.573 585.986 448.773C575.026 449.653 564.236 451.103 552.986 450.773C550.386 442.993 555.906 434.543 559.056 428.843C562.216 423.143 562.146 412.603 558.276 407.483C554.406 402.353 539.886 408.243 532.986 406.773C526.086 405.303 514.586 409.903 506.986 407.773C509.126 413.663 503.796 424.993 507.736 430.023C511.676 435.053 513.116 439.863 515.216 445.543C517.316 451.223 517.696 459.463 514.916 464.703C512.126 469.943 514.476 479.703 513.986 480.773C521.706 476.993 526.356 479.933 534.316 482.443C542.276 484.953 545.096 476.013 551.986 477.773C553.836 478.243 557.626 481.303 559.986 482.773C564.026 485.003 571.446 495.743 574.986 486.773C578.606 485.413 579.946 489.593 582.986 489.773C582.996 487.363 585.436 486.053 585.986 483.773C594.426 479.633 590.706 493.373 598.306 491.093C605.916 488.823 600.876 483.543 594.986 480.773C592.726 479.713 593.586 479.063 594.986 475.773C597.266 472.363 596.686 469.353 594.986 465.773C600.876 461.993 608.496 460.723 614.986 459.773C605.036 427.313 612.616 391.873 609.986 357.773C603.226 358.953 596.146 358.073 589.986 357.773C588.456 357.863 586.946 358.603 585.986 358.773Z" fill="white" stroke="black"/>
<path id="FL" d="M736.986 443.773C736.016 446.273 724.716 442.773 720.986 442.773C713.246 441.533 704.076 444.323 696.986 444.773C689.896 445.223 679.616 448.853 677.986 439.773C661.906 440.173 646.856 444.633 630.986 445.773C629.916 448.413 632.256 449.763 632.986 451.773C633.566 453.373 634.586 455.533 633.986 457.773C635.546 458.183 636.676 457.313 637.986 456.773C637.946 456.633 638.516 453.773 637.986 452.773C640.256 452.313 642.746 452.883 641.986 455.773C646.206 455.273 663.526 450.363 652.986 454.773C659.036 456.183 663.006 457.593 668.986 455.773C662.516 459.573 674.896 460.793 674.986 466.773C676.326 467.483 677.766 467.203 678.986 467.773C681.496 465.773 684.606 465.013 687.686 463.473C690.756 461.923 691.826 457.603 694.986 456.773C700.336 455.373 709.906 460.593 712.736 466.023C715.576 471.453 725.506 472.823 727.986 478.773C730.796 483.463 730.726 490.743 728.986 495.773C728.836 496.223 729.036 497.273 728.986 497.773C728.766 500.083 728.586 504.123 731.986 503.773C731.736 503.503 731.986 502.773 731.986 502.773C733.126 498.223 738.926 502.323 735.986 506.773C735.786 507.083 735.326 507.613 734.986 507.773C732.906 510.353 734.516 512.563 735.986 514.773C738.566 516.953 740.656 520.263 742.986 522.773C743.136 522.193 745.546 521.153 745.986 520.773C747.486 522.453 748.176 525.273 747.986 527.773C753.726 521.263 750.226 533.033 754.986 536.773C755.116 537.243 754.836 538.323 754.986 538.773C756.816 542.493 766.136 540.073 766.906 545.853C767.676 551.643 775.296 550.013 775.986 555.773C792.546 550.233 789.006 525.953 784.066 512.693C779.116 499.443 763.866 488.293 764.986 473.773C754.876 464.283 748.896 450.963 745.986 437.773C743.536 435.313 739.976 435.873 736.986 434.773C733.876 437.033 737.826 441.603 736.986 443.773Z" fill="white" stroke="black"/>
</g>
</svg>
